<svg width="100" height="100" viewBox="0 0 100 100" fill="none" xmlns="http://www.w3.org/2000/svg">
<g clip-path="url(#clip0_138_695)">
<g filter="url(#filter0_d_138_695)">
<path d="M-3.94897 58.3939C2.58171 58.3939 14.5812 60.0788 32.1529 54.5399C49.7247 49.001 55.4222 4.60677 59.469 54.5399C63.5158 104.473 70.3528 54.615 81.4816 54.615C92.6104 54.615 107.12 54.615 107.12 54.615" stroke="#2C3267" stroke-width="2"/>
</g>
<path opacity="0.2" d="M1.41846 58.3939C7.94914 58.3939 19.9486 60.0788 37.5204 54.5399C55.0921 49.001 60.7896 4.60677 64.8364 54.5399C68.8833 104.473 75.7203 54.615 86.849 54.615C97.9778 54.615 112.488 54.615 112.488 54.615" stroke="#2C3267" stroke-width="2"/>
<path d="M-12 58.3939C-5.46931 58.3939 6.53019 60.0788 24.1019 54.5399C41.6737 49.001 47.3711 4.60677 51.418 54.5399C55.4648 104.473 62.3018 54.615 73.4306 54.615C84.5593 54.615 99.0693 54.615 99.0693 54.615" stroke="#2C3267" stroke-width="2"/>
<path d="M4.99658 58.3485C11.5273 58.3485 9.31497 119.517 24.9964 63.7159C40.6778 7.91524 48.2656 -23.1159 52.3125 54.6488C56.3593 132.414 63.9471 54.6488 75.0758 54.6488C86.2046 54.6488 96.2418 54.6488 96.2418 54.6488" stroke="#FE3474" stroke-width="2"/>
<path d="M4.13447 61.6373C4.13975 61.1268 4.2258 60.61 4.51521 60.1893C5.30655 59.0393 7.19481 57.8129 8.57487 69.0834C11.2671 81.2816 13.0313 107.26 24.2297 64.6105C35.428 21.9615 48.2231 -28.2549 51.9611 48.0612C55.699 124.377 63.0075 73.5562 67.4803 65.5051C71.9531 57.4541 70.2996 54.3231 81.0343 54.3231C86.1597 54.3231 89.3879 54.5204 91.3622 54.7266C93.0651 54.9045 94.1627 56.3397 94.1349 58.0518L93.6626 87.0651C93.6271 89.2486 91.8469 91 89.6631 91H7.87239C5.64708 91 3.84959 89.1839 3.87261 86.9587L4.13447 61.6373Z" fill="#FEA0BD" fill-opacity="0.22"/>
</g>
<defs>
<filter id="filter0_d_138_695" x="-7.94897" y="30.0646" width="119.069" height="55.6879" filterUnits="userSpaceOnUse" color-interpolation-filters="sRGB">
<feFlood flood-opacity="0" result="BackgroundImageFix"/>
<feColorMatrix in="SourceAlpha" type="matrix" values="0 0 0 0 0 0 0 0 0 0 0 0 0 0 0 0 0 0 127 0" result="hardAlpha"/>
<feOffset dy="4"/>
<feGaussianBlur stdDeviation="2"/>
<feComposite in2="hardAlpha" operator="out"/>
<feColorMatrix type="matrix" values="0 0 0 0 0.172549 0 0 0 0 0.196078 0 0 0 0 0.403922 0 0 0 0.27 0"/>
<feBlend mode="normal" in2="BackgroundImageFix" result="effect1_dropShadow_138_695"/>
<feBlend mode="normal" in="SourceGraphic" in2="effect1_dropShadow_138_695" result="shape"/>
</filter>
<clipPath id="clip0_138_695">
<rect width="100" height="100" fill="white"/>
</clipPath>
</defs>
</svg>
