<svg width="100" height="100" viewBox="0 0 100 100" fill="none" xmlns="http://www.w3.org/2000/svg">
<g clip-path="url(#clip0_138_737)">
<path d="M74.7484 25.2718C71.5042 21.9955 67.6446 19.3925 63.3914 17.6123C59.1381 15.8321 54.5751 14.9099 49.9643 14.8985C45.3536 14.8872 40.786 15.787 36.5241 17.5462C32.2621 19.3054 28.3897 21.8894 25.1294 25.1497C21.8691 28.41 19.2852 32.2824 17.5259 36.5443C15.7667 40.8063 14.8669 45.3738 14.8783 49.9846C14.8896 54.5953 15.8119 59.1584 17.5921 63.4116C19.3722 67.6649 21.9753 71.5245 25.2516 74.7687C28.4958 78.045 32.3554 80.648 36.6086 82.4282C40.8619 84.2084 45.4249 85.1306 50.0357 85.142C54.6464 85.1533 59.214 84.2535 63.4759 82.4943C67.7379 80.7351 71.6103 78.1511 74.8706 74.8908C78.1309 71.6305 80.7148 67.7582 82.4741 63.4962C84.2333 59.2343 85.1331 54.6667 85.1217 50.0559C85.1104 45.4452 84.1881 40.8821 82.4079 36.6289C80.6278 32.3756 78.0248 28.516 74.7484 25.2718ZM20 50.0203C19.9989 47.3651 20.3509 44.7216 21.0469 42.1593C22.1937 44.6281 23.8594 46.7609 24.9922 49.2937C26.4562 52.5499 30.3875 51.6468 32.1234 54.4999C33.6641 57.0328 32.0187 60.2359 33.1719 62.8859C34.0094 64.8093 35.9844 65.2296 37.3469 66.6359C38.7391 68.0546 38.7094 69.9984 38.9219 71.8484C39.1617 74.022 39.5506 76.1766 40.0859 78.2968C40.0859 78.3125 40.0859 78.3296 40.0984 78.3453C28.4062 74.239 20 63.0937 20 50.0203ZM50 80.0203C48.3246 80.0197 46.6522 79.8797 45 79.6015C45.0172 79.1781 45.025 78.7828 45.0672 78.5078C45.4469 76.0234 46.6906 73.5937 48.3687 71.7343C50.0266 69.9 52.2984 68.6593 53.6984 66.5781C55.0703 64.5468 55.4812 61.8125 54.9156 59.439C54.0828 55.9328 49.3187 54.7624 46.75 52.8609C45.2734 51.7671 43.9594 50.0765 42.0203 49.939C41.1266 49.8765 40.3781 50.0687 39.4922 49.8406C38.6797 49.6296 38.0422 49.1921 37.1766 49.3062C35.5594 49.5187 34.5391 51.2468 32.8016 51.0125C31.1531 50.7921 29.4547 48.8624 29.0797 47.2921C28.5984 45.2734 30.1953 44.6187 31.9062 44.439C32.6203 44.364 33.4219 44.2828 34.1078 44.5453C35.0109 44.8796 35.4375 45.764 36.2484 46.2109C37.7687 47.0453 38.0766 45.7124 37.8437 44.3624C37.4953 42.3406 37.0891 41.5171 38.8922 40.1249C40.1422 39.1656 41.2109 38.4718 41.0109 36.7484C40.8922 35.7359 40.3375 35.2781 40.8547 34.2703C41.2469 33.5031 42.3234 32.8109 43.025 32.3531C44.8359 31.1718 50.7828 31.2593 48.3531 27.9531C47.6391 26.9828 46.3219 25.2484 45.0719 25.0109C43.5094 24.7156 42.8156 26.4593 41.7266 27.2281C40.6016 28.0234 38.4109 28.9265 37.2844 27.6968C35.7687 26.0421 38.2891 25.5 38.8469 24.3437C39.1047 23.8046 38.8469 23.0562 38.4125 22.3515C38.976 22.114 39.549 21.8937 40.1312 21.6906C40.4962 21.9601 40.9291 22.1224 41.3812 22.1593C42.4266 22.2281 43.4125 21.6624 44.325 22.3749C45.3375 23.1562 46.0672 24.1437 47.4109 24.3874C48.7109 24.6234 50.0875 23.8656 50.4094 22.5343C50.6047 21.7249 50.4094 20.8703 50.2219 20.0343C56.0657 20.0679 61.7707 21.818 66.6281 25.0671C66.3156 24.9484 65.9422 24.9624 65.4812 25.1765C64.5328 25.6171 63.1891 26.739 63.0781 27.8515C62.9516 29.114 64.8141 29.2921 65.6984 29.2921C67.0266 29.2921 68.3719 28.6984 67.9438 27.164C67.7578 26.4984 67.5047 25.8062 67.0969 25.3875C68.0772 26.0677 69.0164 26.8054 69.9094 27.5968C69.8953 27.6109 69.8813 27.6234 69.8672 27.639C68.9672 28.5765 67.9219 29.3187 67.3063 30.4593C66.8719 31.2625 66.3828 31.6437 65.5031 31.8515C65.0188 31.9656 64.4656 32.0078 64.0594 32.3328C62.9281 33.2234 63.5719 35.364 64.6438 36.0062C65.9984 36.8171 68.0078 36.4359 69.0297 35.2781C69.8281 34.3718 70.2984 32.7984 71.7344 32.7999C72.3666 32.7986 72.9739 33.0462 73.425 33.489C74.0188 34.1046 73.9016 34.6796 74.0281 35.4484C74.2516 36.814 75.4562 36.0734 76.1891 35.3843C76.7232 36.335 77.2052 37.314 77.6328 38.3171C76.8266 39.4781 76.1859 40.7437 74.2469 39.3906C73.0859 38.5796 72.3719 37.4031 70.9141 37.0374C69.6406 36.7249 68.3359 37.0499 67.0781 37.2671C65.6484 37.5156 63.9531 37.6249 62.8687 38.7078C61.8203 39.7515 61.2656 41.1484 60.15 42.1968C57.9922 44.2281 57.0813 46.4453 58.4781 49.3171C59.8219 52.0781 62.6328 53.5765 65.6656 53.3796C68.6453 53.1812 71.7406 51.4531 71.6547 55.7828C71.6234 57.3156 71.9438 58.3765 72.4141 59.8C72.85 61.1125 72.8203 62.3843 72.9203 63.739C73.0154 65.3253 73.2634 66.8988 73.6609 68.4375C70.8603 72.0433 67.2726 74.9615 63.1718 76.9689C59.0711 78.9764 54.5657 80.0201 50 80.0203Z" fill="#343434"/>
<path d="M76.6367 14.2701L71.3877 20.4347L73.2702 22.0376C75.1974 23.6786 76.161 24.4992 76.0274 25.4748C75.8936 26.4505 74.7448 26.9816 72.4472 28.0438L64.7845 31.5863C60.2009 33.7052 57.9092 34.7647 56.5944 33.6451C55.2797 32.5256 55.9603 30.0943 57.3215 25.2316L59.5973 17.1022C60.2796 14.6646 60.6208 13.4459 61.5627 13.1583C62.5046 12.8709 63.4682 13.6914 65.3954 15.3323L67.278 16.9353L72.5271 10.7707C73.0705 10.1324 73.3422 9.81326 73.6609 9.65032C74.0858 9.43306 74.5795 9.39346 75.0336 9.54021C75.3741 9.65028 75.6932 9.92204 76.3316 10.4656C76.9699 11.0091 77.2891 11.2809 77.452 11.5994C77.6692 12.0243 77.7088 12.518 77.5621 12.9721C77.452 13.3127 77.1803 13.6319 76.6367 14.2701Z" fill="#FF3573"/>
<path d="M14.6969 75.2315L19.1488 68.4688L17.0836 67.1092C14.9694 65.7174 13.9123 65.0215 13.925 64.0368C13.9379 63.052 15.0127 62.3839 17.1625 61.0475L24.3319 56.5904C28.6204 53.9244 30.7646 52.5914 32.207 53.5409C33.6493 54.4904 33.2726 56.9869 32.5191 61.98L31.2593 70.3274C30.8816 72.8304 30.6927 74.0818 29.7933 74.4829C28.8939 74.8839 27.8367 74.188 25.7225 72.7962L23.6573 71.4367L19.2053 78.1995C18.7445 78.8997 18.514 79.2498 18.2177 79.4507C17.8227 79.7185 17.3376 79.8185 16.8689 79.7286C16.5175 79.6612 16.1674 79.4307 15.4671 78.9697C14.7669 78.5087 14.4167 78.2783 14.2159 77.9821C13.9481 77.5871 13.8481 77.102 13.938 76.6334C14.0054 76.2818 14.2359 75.9317 14.6969 75.2315Z" fill="#FEA0BD"/>
</g>
<path d="M79.217 82.3442L73.5968 76.516L71.817 78.2323C69.995 79.9893 69.0839 80.8678 68.126 80.6392C67.1681 80.4104 66.7522 79.2151 65.9205 76.8244L63.1463 68.8512C61.487 64.082 60.6573 61.6975 61.9004 60.4988C63.1434 59.3001 65.4963 60.2158 70.2021 62.0473L78.0692 65.1091C80.4281 66.0272 81.6075 66.4862 81.8014 67.4517C81.9951 68.4173 81.0841 69.2958 79.2621 71.0529L77.4822 72.7692L83.1025 78.5974C83.6844 79.2007 83.9754 79.5025 84.1063 79.8356C84.2809 80.2798 84.2719 80.775 84.0813 81.2125C83.9384 81.5405 83.6366 81.8315 83.0331 82.4135C82.4296 82.9954 82.1279 83.2864 81.7949 83.4173C81.3507 83.5919 80.8555 83.5829 80.418 83.3923C80.0898 83.2494 79.7989 82.9476 79.217 82.3442Z" fill="#2C3267"/>
<defs>
<clipPath id="clip0_138_737">
<rect width="80" height="80" fill="white" transform="translate(10 10)"/>
</clipPath>
</defs>
</svg>
