<svg width="100" height="106" viewBox="0 0 100 106" fill="none" xmlns="http://www.w3.org/2000/svg">
<circle cx="14" cy="14" r="2" fill="#343434"/>
<circle cx="22" cy="14" r="2" fill="#343434"/>
<circle cx="30" cy="14" r="2" fill="#343434"/>
<circle cx="38" cy="14" r="2" fill="#343434"/>
<circle cx="46" cy="14" r="2" fill="#343434"/>
<circle cx="54" cy="14" r="2" fill="#343434"/>
<circle cx="62" cy="14" r="2" fill="#343434"/>
<circle cx="70" cy="14" r="2" fill="#343434"/>
<circle cx="78" cy="14" r="2" fill="#343434"/>
<circle cx="86" cy="14" r="2" fill="#343434"/>
<circle cx="14" cy="22" r="2" fill="#343434"/>
<circle cx="22" cy="22" r="2" fill="#343434"/>
<circle cx="30" cy="22" r="2" fill="#343434"/>
<circle cx="38" cy="22" r="2" fill="#343434"/>
<circle cx="46" cy="22" r="2" fill="#343434"/>
<circle cx="54" cy="22" r="2" fill="#343434"/>
<circle cx="62" cy="22" r="2" fill="#343434"/>
<circle cx="70" cy="22" r="2" fill="#343434"/>
<circle cx="78" cy="22" r="2" fill="#343434"/>
<circle cx="86" cy="22" r="2" fill="#343434"/>
<circle cx="14" cy="30" r="2" fill="#343434"/>
<circle cx="22" cy="30" r="2" fill="#343434"/>
<circle cx="30" cy="30" r="2" fill="#343434"/>
<circle cx="38" cy="30" r="2" fill="#343434"/>
<circle cx="46" cy="30" r="2" fill="#343434"/>
<circle cx="54" cy="30" r="2" fill="#343434"/>
<circle cx="62" cy="30" r="2" fill="#343434"/>
<circle cx="70" cy="30" r="2" fill="#343434"/>
<circle cx="78" cy="30" r="2" fill="#343434"/>
<circle cx="86" cy="30" r="2" fill="#343434"/>
<circle cx="14" cy="38" r="2" fill="#343434"/>
<circle cx="22" cy="38" r="2" fill="#343434"/>
<circle cx="30" cy="38" r="2" fill="#343434"/>
<circle cx="38" cy="38" r="2" fill="#343434"/>
<circle cx="46" cy="38" r="2" fill="#343434"/>
<circle cx="54" cy="38" r="2" fill="#343434"/>
<circle cx="62" cy="38" r="2" fill="#343434"/>
<circle cx="70" cy="38" r="2" fill="#343434"/>
<circle cx="78" cy="38" r="2" fill="#343434"/>
<circle cx="86" cy="38" r="2" fill="#343434"/>
<circle cx="14" cy="46" r="2" fill="#343434"/>
<circle cx="22" cy="46" r="2" fill="#343434"/>
<circle cx="30" cy="46" r="2" fill="#343434"/>
<circle cx="38" cy="46" r="2" fill="#343434"/>
<circle cx="46" cy="46" r="2" fill="#343434"/>
<circle cx="54" cy="46" r="2" fill="#343434"/>
<circle cx="62" cy="46" r="2" fill="#343434"/>
<circle cx="70" cy="46" r="2" fill="#343434"/>
<circle cx="78" cy="46" r="2" fill="#343434"/>
<circle cx="86" cy="46" r="2" fill="#343434"/>
<circle cx="14" cy="54" r="2" fill="#343434"/>
<circle cx="22" cy="54" r="2" fill="#343434"/>
<circle cx="30" cy="54" r="2" fill="#343434"/>
<circle cx="38" cy="54" r="2" fill="#343434"/>
<circle cx="46" cy="54" r="2" fill="#343434"/>
<circle cx="54" cy="54" r="2" fill="#343434"/>
<circle cx="62" cy="54" r="2" fill="#343434"/>
<circle cx="70" cy="54" r="2" fill="#343434"/>
<circle cx="78" cy="54" r="2" fill="#343434"/>
<circle cx="86" cy="54" r="2" fill="#343434"/>
<circle cx="14" cy="62" r="2" fill="#343434"/>
<circle cx="22" cy="62" r="2" fill="#343434"/>
<circle cx="30" cy="62" r="2" fill="#343434"/>
<circle cx="38" cy="62" r="2" fill="#343434"/>
<circle cx="46" cy="62" r="2" fill="#343434"/>
<circle cx="54" cy="62" r="2" fill="#343434"/>
<circle cx="62" cy="62" r="2" fill="#343434"/>
<circle cx="70" cy="62" r="2" fill="#343434"/>
<circle cx="78" cy="62" r="2" fill="#343434"/>
<circle cx="86" cy="62" r="2" fill="#343434"/>
<circle cx="14" cy="70" r="2" fill="#343434"/>
<circle cx="22" cy="70" r="2" fill="#343434"/>
<circle cx="30" cy="70" r="2" fill="#343434"/>
<circle cx="38" cy="70" r="2" fill="#343434"/>
<circle cx="46" cy="70" r="2" fill="#343434"/>
<circle cx="54" cy="70" r="2" fill="#343434"/>
<circle cx="62" cy="70" r="2" fill="#343434"/>
<circle cx="70" cy="70" r="2" fill="#343434"/>
<circle cx="78" cy="70" r="2" fill="#343434"/>
<circle cx="86" cy="70" r="2" fill="#343434"/>
<circle cx="14" cy="78" r="2" fill="#343434"/>
<circle cx="22" cy="78" r="2" fill="#343434"/>
<circle cx="30" cy="78" r="2" fill="#343434"/>
<circle cx="38" cy="78" r="2" fill="#343434"/>
<circle cx="46" cy="78" r="2" fill="#343434"/>
<circle cx="54" cy="78" r="2" fill="#343434"/>
<circle cx="62" cy="78" r="2" fill="#343434"/>
<circle cx="70" cy="78" r="2" fill="#343434"/>
<circle cx="78" cy="78" r="2" fill="#343434"/>
<circle cx="86" cy="78" r="2" fill="#343434"/>
<circle cx="14" cy="86" r="2" fill="#343434"/>
<circle cx="22" cy="86" r="2" fill="#343434"/>
<circle cx="30" cy="86" r="2" fill="#343434"/>
<circle cx="38" cy="86" r="2" fill="#343434"/>
<circle cx="46" cy="86" r="2" fill="#343434"/>
<circle cx="54" cy="86" r="2" fill="#343434"/>
<circle cx="62" cy="86" r="2" fill="#343434"/>
<circle cx="70" cy="86" r="2" fill="#343434"/>
<circle cx="78" cy="86" r="2" fill="#343434"/>
<circle cx="86" cy="86" r="2" fill="#343434"/>
<g filter="url(#filter0_d_124_586)">
<path d="M11 96L31.0625 68.9999" stroke="#2C3267" stroke-width="3" stroke-linecap="round" shape-rendering="crispEdges"/>
</g>
<g filter="url(#filter1_d_124_586)">
<ellipse cx="46" cy="49.5" rx="26" ry="26.5" fill="#FEA0BD" fill-opacity="0.41" style="mix-blend-mode:plus-lighter" shape-rendering="crispEdges"/>
<path d="M70.5 49.5C70.5 63.3342 59.5042 74.5 46 74.5C32.4958 74.5 21.5 63.3342 21.5 49.5C21.5 35.6658 32.4958 24.5 46 24.5C59.5042 24.5 70.5 35.6658 70.5 49.5Z" stroke="#2C3267" stroke-width="3" shape-rendering="crispEdges"/>
</g>
<defs>
<filter id="filter0_d_124_586" x="5.5" y="67.4999" width="31.0627" height="38.0002" filterUnits="userSpaceOnUse" color-interpolation-filters="sRGB">
<feFlood flood-opacity="0" result="BackgroundImageFix"/>
<feColorMatrix in="SourceAlpha" type="matrix" values="0 0 0 0 0 0 0 0 0 0 0 0 0 0 0 0 0 0 127 0" result="hardAlpha"/>
<feOffset dy="4"/>
<feGaussianBlur stdDeviation="2"/>
<feComposite in2="hardAlpha" operator="out"/>
<feColorMatrix type="matrix" values="0 0 0 0 0 0 0 0 0 0 0 0 0 0 0 0 0 0 0.25 0"/>
<feBlend mode="normal" in2="BackgroundImageFix" result="effect1_dropShadow_124_586"/>
<feBlend mode="normal" in="SourceGraphic" in2="effect1_dropShadow_124_586" result="shape"/>
</filter>
<filter id="filter1_d_124_586" x="9.8" y="16.8" width="72.4" height="73.4" filterUnits="userSpaceOnUse" color-interpolation-filters="sRGB">
<feFlood flood-opacity="0" result="BackgroundImageFix"/>
<feColorMatrix in="SourceAlpha" type="matrix" values="0 0 0 0 0 0 0 0 0 0 0 0 0 0 0 0 0 0 127 0" result="hardAlpha"/>
<feOffset dy="4"/>
<feGaussianBlur stdDeviation="5.1"/>
<feComposite in2="hardAlpha" operator="out"/>
<feColorMatrix type="matrix" values="0 0 0 0 0 0 0 0 0 0 0 0 0 0 0 0 0 0 0.25 0"/>
<feBlend mode="normal" in2="BackgroundImageFix" result="effect1_dropShadow_124_586"/>
<feBlend mode="normal" in="SourceGraphic" in2="effect1_dropShadow_124_586" result="shape"/>
</filter>
</defs>
</svg>
