<?xml version="1.0" encoding="UTF-8"?>
<svg id="Layer_2" data-name="Layer 2" xmlns="http://www.w3.org/2000/svg" viewBox="0 0 768.21 265.75">
  <defs>
    <style>
      .cls-1 {
        fill: #191a44;
      }

      .cls-1, .cls-2 {
        stroke-width: 0px;
      }

      .cls-2 {
        fill: #ff3573;
      }
    </style>
  </defs>
  <g id="Logo_-_Company" data-name="Logo - Company">
    <g>
      <g>
        <g>
          <path class="cls-1" d="M75.54,72.91h-8.46c-2.98-16.56-6.08-18.59-17.99-18.59v63.74l10.96.95v8.94H18.71v-8.94l10.84-.95v-63.74c-12.03,0-15.37,2.98-17.99,18.59H2.98l1.19-28.36h70.29l1.07,28.36Z"/>
          <path class="cls-1" d="M104.42,66.95c14.77,0,25.14,8.22,25.14,26.33,0,1.55-.12,4.77-.24,6.43h-34.55c.24,11.08,2.5,19.66,12.75,19.66,7.15,0,10.48-4.29,13.22-10.72l8.34,2.98c-3.46,11.2-12.03,17.63-24.54,17.63-18.82,0-28.83-12.03-28.83-30.14,0-20.61,12.03-32.17,28.71-32.17ZM110.97,92.21v-2.5c0-10.96-1.43-15.61-7.27-15.61-6.67,0-8.58,7.86-8.82,18.11h16.08Z"/>
          <path class="cls-1" d="M158.07,39.31v79.59l7.86.83v8.22h-33.84v-8.22l7.62-.83V48.25l-7.62-.95v-7.98h25.97Z"/>
          <path class="cls-1" d="M195.89,66.95c14.77,0,25.14,8.22,25.14,26.33,0,1.55-.12,4.77-.24,6.43h-34.55c.24,11.08,2.5,19.66,12.75,19.66,7.15,0,10.48-4.29,13.22-10.72l8.34,2.98c-3.46,11.2-12.03,17.63-24.54,17.63-18.82,0-28.83-12.03-28.83-30.14,0-20.61,12.03-32.17,28.71-32.17ZM202.44,92.21v-2.5c0-10.96-1.43-15.61-7.27-15.61-6.67,0-8.58,7.86-8.82,18.11h16.08Z"/>
          <path class="cls-1" d="M255.82,66.95c20.97,0,29.31,12.87,29.31,30.98s-9.89,31.33-30.02,31.33-29.43-12.75-29.43-30.86,10.37-31.45,30.14-31.45ZM255.34,74.22c-8.58,0-10.37,8.58-10.37,23.35,0,16.2,1.91,24.3,10.6,24.3,8.22,0,10.25-8.34,10.25-23.47s-1.67-24.19-10.48-24.19Z"/>
          <path class="cls-1" d="M290.35,108.65h7.39c1.91,7.39,8.1,12.63,17.04,12.63,6.55,0,9.65-2.26,9.65-6.79,0-12.75-33.84-1.19-33.84-27.4,0-12.15,9.29-20.13,21.68-20.13,8.34,0,10.84,3.57,13.46,3.57,1.55,0,1.79-.83,2.38-2.86h6.2v18.47h-7.27c-3.1-7.98-6.91-11.44-14.42-11.44-4.53,0-8.94,1.79-8.94,6.2,0,11.79,33.96,2.03,33.96,27.64,0,13.11-8.7,20.73-21.56,20.73-10.25,0-13.7-4.29-16.44-4.29-1.19,0-1.67.83-2.38,3.57h-6.91v-19.9Z"/>
          <path class="cls-1" d="M393.86,84.58c0,6.31-3.46,10.84-9.77,10.84s-8.7-4.29-8.7-8.82c0-1.55.36-3.46.83-5.12h4.53c.12-.83.24-1.55.24-2.26,0-3.57-2.62-4.88-6.79-4.88-9.77,0-13.22,9.77-13.22,23.35s2.74,21.8,12.51,21.8c7.15,0,10.13-5.96,12.27-11.32l8.46,2.98c-1.67,6.67-7.62,18.11-24.07,18.11-18.71,0-28.47-11.2-28.47-29.67,0-20.25,11.2-32.64,30.38-32.64,15.25,0,21.8,8.46,21.8,17.63Z"/>
          <path class="cls-1" d="M428.2,66.95c20.97,0,29.31,12.87,29.31,30.98s-9.89,31.33-30.02,31.33-29.43-12.75-29.43-30.86,10.37-31.45,30.14-31.45ZM427.72,74.22c-8.58,0-10.37,8.58-10.37,23.35,0,16.2,1.91,24.3,10.6,24.3,8.22,0,10.25-8.34,10.25-23.47s-1.67-24.19-10.48-24.19Z"/>
          <path class="cls-1" d="M459.71,143.44l7.03-.83v-65.53l-7.27-1.07v-7.74h22.88l.83,8.82c2.74-5.6,8.82-10.13,18.71-10.13,15.01,0,22.88,10.6,22.88,30.26s-9.05,32.05-24.66,32.05c-7.15,0-12.27-2.03-15.25-5.48v18.82l10.96,1.07v8.1h-36.1v-8.34ZM484.85,91.14v16.32c0,8.46,3.93,13.58,10.48,13.58,8.22,0,10.13-7.62,10.13-22.99,0-13.82-1.43-21.92-10.01-21.92-6.79,0-10.6,6.08-10.6,15.01Z"/>
          <path class="cls-1" d="M558.23,66.95c14.77,0,25.14,8.22,25.14,26.33,0,1.55-.12,4.77-.24,6.43h-34.55c.24,11.08,2.5,19.66,12.75,19.66,7.15,0,10.48-4.29,13.22-10.72l8.34,2.98c-3.46,11.2-12.03,17.63-24.54,17.63-18.82,0-28.83-12.03-28.83-30.14,0-20.61,12.03-32.17,28.71-32.17ZM564.79,92.21v-2.5c0-10.96-1.43-15.61-7.27-15.61-6.67,0-8.58,7.86-8.82,18.11h16.08Z"/>
          <path class="cls-1" d="M30.98,192.84v28.36l7.98.95v9.05H3.34v-9.05l8.1-.95v-63.5l-8.1-.95v-8.94h29.79c17.63,0,35.03,2.74,35.03,20.13,0,13.82-8.34,18.71-22.04,19.78v.36c14.65,1.67,20.13,6.67,20.13,20.49v7.86c0,4.05.36,6.43,3.93,6.43,3.81,0,4.41-3.81,5.36-10.96l5.96.83c-.48,11.79-4.29,19.78-17.99,19.78-10.48,0-16.8-5.36-16.8-18.82v-9.29c0-7.74-2.86-11.56-10.6-11.56h-5.12ZM30.98,184.5h1.55c10.84,0,15.37-4.65,15.37-14.18s-4.77-12.63-14.65-12.63h-2.26v26.81Z"/>
          <path class="cls-1" d="M113.8,170.2c14.77,0,25.14,8.22,25.14,26.33,0,1.55-.12,4.77-.24,6.43h-34.55c.24,11.08,2.5,19.66,12.75,19.66,7.15,0,10.48-4.29,13.22-10.72l8.34,2.98c-3.46,11.2-12.03,17.63-24.54,17.63-18.82,0-28.83-12.03-28.83-30.14,0-20.61,12.03-32.17,28.71-32.17ZM120.35,195.46v-2.5c0-10.96-1.43-15.61-7.27-15.61-6.67,0-8.58,7.86-8.82,18.11h16.08Z"/>
          <path class="cls-1" d="M144.61,211.9h7.39c1.91,7.39,8.1,12.63,17.04,12.63,6.55,0,9.65-2.26,9.65-6.79,0-12.75-33.84-1.19-33.84-27.4,0-12.15,9.29-20.13,21.68-20.13,8.34,0,10.84,3.57,13.46,3.57,1.55,0,1.79-.83,2.38-2.86h6.2v18.47h-7.27c-3.1-7.98-6.91-11.44-14.42-11.44-4.53,0-8.94,1.79-8.94,6.2,0,11.79,33.96,2.03,33.96,27.64,0,13.11-8.7,20.73-21.56,20.73-10.25,0-13.7-4.29-16.44-4.29-1.19,0-1.67.83-2.38,3.57h-6.91v-19.9Z"/>
          <path class="cls-1" d="M224.65,170.2c14.77,0,25.14,8.22,25.14,26.33,0,1.55-.12,4.77-.24,6.43h-34.55c.24,11.08,2.5,19.66,12.75,19.66,7.15,0,10.48-4.29,13.22-10.72l8.34,2.98c-3.46,11.2-12.03,17.63-24.54,17.63-18.82,0-28.83-12.03-28.83-30.14,0-20.61,12.03-32.17,28.71-32.17ZM231.2,195.46v-2.5c0-10.96-1.43-15.61-7.27-15.61-6.67,0-8.58,7.86-8.82,18.11h16.08Z"/>
          <path class="cls-1" d="M286.66,200.11v-8.58c0-9.17-2.03-14.54-10.13-14.54-3.46,0-6.43.83-6.43,3.93,0,.48.12,1.07.24,1.67h4.41c.36,1.55.71,3.22.71,4.65,0,4.77-2.86,8.22-9.05,8.22s-9.17-4.17-9.17-9.41c0-9.41,8.34-15.85,23.47-15.85s24.3,5.36,24.3,22.52v24.54c0,4.29.24,6.31,2.5,6.31.95,0,2.14-.12,3.81-.83l1.67,6.08c-2.14,1.43-6.79,3.69-12.75,3.69-7.03,0-9.77-2.62-11.2-8.82-2.62,5.12-7.51,8.82-17.51,8.82-9.29,0-17.04-4.17-17.04-15.61,0-12.99,8.7-16.8,23.95-16.8h8.22ZM286.66,214.28v-7.98h-4.41c-7.03,0-9.05,2.98-9.05,9.17,0,5.48,1.79,8.34,6.2,8.34,3.81,0,7.27-2.62,7.27-9.53Z"/>
          <path class="cls-1" d="M355.37,222.86v8.34h-39.08v-8.34l7.51-.83v-41.46l-7.51-.95v-8.1h23.83l.95,9.77c2.74-5.48,7.39-11.08,17.16-11.08,7.74,0,13.58,4.88,13.58,14.3,0,7.86-4.41,12.15-11.08,12.15-7.27,0-9.77-4.41-9.77-10.72l4.77-1.31c.12-.6.24-1.19.24-1.67,0-1.91-1.43-2.74-3.46-2.74-6.55,0-10.37,8.1-10.37,17.04v24.78l13.22.83Z"/>
          <path class="cls-1" d="M426.41,187.83c0,6.31-3.46,10.84-9.77,10.84s-8.7-4.29-8.7-8.82c0-1.55.36-3.46.83-5.12h4.53c.12-.83.24-1.55.24-2.26,0-3.57-2.62-4.88-6.79-4.88-9.77,0-13.22,9.77-13.22,23.35s2.74,21.8,12.51,21.8c7.15,0,10.13-5.96,12.27-11.32l8.46,2.98c-1.67,6.67-7.62,18.11-24.07,18.11-18.71,0-28.47-11.2-28.47-29.67,0-20.25,11.2-32.64,30.38-32.64,15.25,0,21.8,8.46,21.8,17.63Z"/>
          <path class="cls-1" d="M455.34,142.56v38.01c3.22-5.84,8.46-10.37,18.23-10.37,11.32,0,17.87,5.48,17.87,19.42v32.41l7.27.83v8.34h-30.86v-8.34l5.36-.83v-30.38c0-6.43-.71-10.72-7.03-10.72s-10.72,3.93-10.72,13.94v27.16l5.72.83v8.34h-31.45v-8.34l7.39-.83v-70.65l-7.39-.95v-7.86h25.62Z"/>
          <path class="cls-1" d="M507.46,246.45c9.41-8.1,11.08-12.03,11.08-15.49,0-2.74-1.07-4.05-2.62-4.53l-4.53,4.65c-3.1-1.07-6.67-4.29-6.67-9.17,0-6.67,5.12-10.01,10.6-10.01,7.98,0,12.15,6.31,12.15,13.7,0,9.17-4.77,16.56-16.08,25.38l-3.93-4.53Z"/>
          <path class="cls-1" d="M564.4,157.69l-7.39-.83v-9.05h34.31v8.94l-7.39.83v63.74l7.39.95v8.94h-34.31v-8.94l7.39-.95v-63.62Z"/>
          <path class="cls-1" d="M619.23,171.51l1.31,10.48c2.86-6.08,7.98-11.79,19.54-11.79s17.99,5.48,17.99,19.42v32.41l7.15.83v8.34h-30.74v-8.34l5.24-.83v-30.38c0-6.43-.71-10.72-7.03-10.72s-10.72,3.81-10.72,13.46v27.64l5.84.83v8.34h-31.33v-8.34l7.15-.83v-41.58l-7.15-1.07v-7.86h22.76Z"/>
          <path class="cls-1" d="M719.29,187.83c0,6.31-3.46,10.84-9.77,10.84s-8.7-4.29-8.7-8.82c0-1.55.36-3.46.83-5.12h4.53c.12-.83.24-1.55.24-2.26,0-3.57-2.62-4.88-6.79-4.88-9.77,0-13.22,9.77-13.22,23.35s2.74,21.8,12.51,21.8c7.15,0,10.13-5.96,12.27-11.32l8.46,2.98c-1.67,6.67-7.62,18.11-24.07,18.11-18.71,0-28.47-11.2-28.47-29.67,0-20.25,11.2-32.64,30.38-32.64,15.25,0,21.8,8.46,21.8,17.63Z"/>
          <path class="cls-1" d="M736.73,211.19c6.43,0,10.96,3.22,10.96,10.37,0,6.43-3.81,10.84-10.72,10.84-8.46,0-11.08-5.48-11.08-10.6,0-5.96,3.81-10.6,10.84-10.6Z"/>
        </g>
        <g>
          <path class="cls-2" d="M589.02,2.88l5.41,14.61,14.61,5.41c3.84,1.42,3.84,6.85,0,8.27l-14.61,5.41-5.41,14.61c-1.42,3.84-6.85,3.84-8.27,0l-5.41-14.61-14.61-5.41c-3.84-1.42-3.84-6.85,0-8.27l14.61-5.41,5.41-14.61c1.42-3.84,6.85-3.84,8.27,0Z"/>
          <path class="cls-2" d="M624.35,42.02l2.65,7.16,7.16,2.65c3.84,1.42,3.84,6.85,0,8.27l-7.16,2.65-2.65,7.16c-1.42,3.84-6.85,3.84-8.27,0l-2.65-7.16-7.16-2.65c-3.84-1.42-3.84-6.85,0-8.27l7.16-2.65,2.65-7.16c1.42-3.84,6.85-3.84,8.27,0Z"/>
        </g>
      </g>
      <path class="cls-1" d="M42.23,19.09h0c.68,2.23-.95,4.49-3.28,4.55l-36.43.71c-1.19.02-2.13,1-2.12,2.18h0c.01,1.18.97,2.13,2.15,2.14l71.93.4c4.1-.05,4.82-5.89.84-6.92l-28.86-7.49c-2.66-.69-5.05,1.81-4.24,4.44Z"/>
    </g>
  </g>
</svg>