<?xml version="1.0" encoding="UTF-8"?>
<svg id="Layer_1" xmlns="http://www.w3.org/2000/svg" version="1.1" viewBox="0 0 158.7 158.7">
  <!-- Generator: Adobe Illustrator 29.0.0, SVG Export Plug-In . SVG Version: 2.1.0 Build 186)  -->
  <defs>
    <style>
      .st0 {
        fill: #191a44;
      }

      .st1 {
        fill: #ff3573;
      }

      .st2 {
        fill: #fff;
      }
    </style>
  </defs>
  <path class="st0" d="M12.5,104.6c-3.1,0-5.6.5-7.8,1.5,2.4,6.7,5.7,12.9,9.6,18.6l3.5-20.1h-5.3Z"/>
  <path class="st0" d="M81.2,139.2c0-24.6,15.8-48,42-48s21.9,6.2,21.9,17.7h0c0,23.2-29.8,26.1-42.2,26.5-.2,9.4,1,15.2,5,17.9,29.7-11.5,50.7-40.3,50.7-74S123.1,0,79.3,0,10.2,26.2,2.1,61.3l34-.7c3.2,0,5.5-3.2,4.5-6.3h0c-1.1-3.6,2.2-7.1,5.9-6.1l39.9,10.3c5.5,1.4,4.5,9.5-1.2,9.6l-84.3-.5c-.6,3.8-.9,7.7-.9,11.6s.3,8,.9,11.9h78.6l-5.4,39.2h-11.4c.3-20.6-4.3-25.8-15.5-25.8h-3.8l-7.1,41.4c12.4,8,27.2,12.7,43,12.7s5.1-.1,7.6-.4c-3.8-4.7-5.7-11.1-5.7-19.1ZM135.6,57.3c1.4-3.8,6.8-3.8,8.3,0l1.6,4.4,4.4,1.6c3.8,1.4,3.8,6.9,0,8.3l-4.4,1.6-1.6,4.4c-1.4,3.8-6.9,3.8-8.3,0l-1.6-4.4-4.4-1.6c-3.8-1.4-3.8-6.8,0-8.3l4.4-1.6,1.6-4.4ZM90.8,38.8l10.8-4,4-10.8c1.4-3.8,6.8-3.8,8.3,0l4,10.8,10.8,4c3.8,1.4,3.8,6.9,0,8.3l-10.8,4-4,10.8c-1.4,3.8-6.8,3.8-8.3,0l-4-10.8-10.8-4c-3.8-1.4-3.8-6.8,0-8.3Z"/>
  <path class="st0" d="M126.5,108c0-5.4-2-8.1-5.9-8.1h0c-8,0-13.8,10.3-16.1,25.7,12.3-1,22-4.5,22-17.5Z"/>
  <path class="st2" d="M47.2,104.6c11.2,0,15.8,5.3,15.5,25.8h11.4l5.4-39.2H.9c.8,5.1,2,10.1,3.7,14.9,2.2-1,4.8-1.5,7.8-1.5h5.3l-3.5,20.1c5.9,8.4,13.4,15.7,22,21.3l7.1-41.4h3.8Z"/>
  <path class="st2" d="M86.3,58.6l-39.9-10.3c-3.7-1-7,2.5-5.9,6.1h0c1,3.1-1.3,6.2-4.5,6.3l-34,.7c-.5,2.1-.9,4.2-1.2,6.4l84.3.5c5.7,0,6.7-8.1,1.2-9.6Z"/>
  <path class="st1" d="M101.6,51l4,10.8c1.4,3.8,6.8,3.8,8.3,0l4-10.8,10.8-4c3.8-1.4,3.8-6.8,0-8.3l-10.8-4-4-10.8c-1.4-3.8-6.8-3.8-8.3,0l-4,10.8-10.8,4c-3.8,1.4-3.8,6.9,0,8.3l10.8,4Z"/>
  <path class="st1" d="M129.6,71.7l4.4,1.6,1.6,4.4c1.4,3.8,6.8,3.8,8.3,0l1.6-4.4,4.4-1.6c3.8-1.4,3.8-6.8,0-8.3l-4.4-1.6-1.6-4.4c-1.4-3.8-6.9-3.8-8.3,0l-1.6,4.4-4.4,1.6c-3.8,1.4-3.8,6.9,0,8.3Z"/>
  <path class="st2" d="M103,135.4c12.3-.4,42.2-3.3,42.2-26.5h0c0-11.5-8.3-17.7-21.9-17.7-26.2,0-42,23.3-42,48s2,14.4,5.7,19.1c7.3-.7,14.4-2.4,21-5-3.9-2.6-5.2-8.4-5-17.9ZM120.5,99.9h0c3.9,0,5.9,2.7,5.9,8.1,0,13-9.7,16.5-22,17.5,2.3-15.4,8.1-25.6,16.1-25.6Z"/>
</svg>