<svg width="527" height="92" viewBox="0 0 527 92" fill="none" xmlns="http://www.w3.org/2000/svg">
<path d="M69.5 34.6998H61.3C61.5 19.7998 58.1 15.9998 50 15.9998H47.3L36.3 79.6998L46.5 80.6998L45 89.7998H5.7L7.2 80.6998L17.7 79.6998L28.7 15.9998H24.9C16.3 15.9998 13.3 21.0998 8.8 34.6998H0L6.1 6.2998H73.4L69.5 34.6998Z" fill="black"/>
<path d="M116.6 43.2998C116.6 62.3998 92.1 64.6998 81.9 65.0998C81.7 76.1998 83.8 81.1998 91.4 81.1998C98.2 81.1998 102.2 76.9998 106.3 68.0998L113.9 70.6998C109.8 83.5998 99.7 91.0998 86.4 91.0998C71.9 91.0998 64 82.7998 64 68.1998C64 47.8998 77 28.7998 98.6 28.7998C109.8 28.7998 116.6 33.8998 116.6 43.2998ZM96.3 35.8998C89.7 35.8998 85 44.3998 83.1 56.9998C93.2 56.1998 101.2 53.2998 101.2 42.5998C101.2 38.1998 99.5 35.8998 96.3 35.8998Z" fill="black"/>
<path d="M124.7 8.0999L126.1 0.399902H152.2L152.7 1.5999C149.7 16.6999 137.7 68.9999 137.7 77.9999C137.7 80.5999 139 81.7999 141.3 81.7999C142.8 81.7999 144.6 80.7999 146.7 78.7999L149.9 82.5999C146 87.5999 140.2 91.0999 133.5 91.0999C126.8 91.0999 120.9 88.1999 120.9 78.7999C120.9 73.2999 123.2 63.7999 125.9 50.0999C128.5 37.5999 131.4 22.7999 134 9.4999L124.7 8.0999Z" fill="black"/>
<path d="M204.4 43.2998C204.4 62.3998 179.9 64.6998 169.7 65.0998C169.5 76.1998 171.6 81.1998 179.2 81.1998C186 81.1998 190 76.9998 194.1 68.0998L201.7 70.6998C197.6 83.5998 187.5 91.0998 174.2 91.0998C159.7 91.0998 151.8 82.7998 151.8 68.1998C151.8 47.8998 164.8 28.7998 186.4 28.7998C197.6 28.7998 204.4 33.8998 204.4 43.2998ZM184.2 35.8998C177.6 35.8998 172.9 44.3998 171 56.9998C181.1 56.1998 189.1 53.2998 189.1 42.5998C189.1 38.1998 187.4 35.8998 184.2 35.8998Z" fill="black"/>
<path d="M242.2 28.7998C258.8 28.7998 265.6 37.6998 265.6 51.8998C265.6 71.2998 253.2 91.0998 230.7 91.0998C213.8 91.0998 207.1 82.1998 207.1 68.0998C207.1 47.8998 219.7 28.7998 242.2 28.7998ZM248 47.2998C248 40.2998 246 35.8998 240.5 35.8998C229.5 35.8998 225 58.2998 225 72.1998C225 80.1998 227 83.7998 232.3 83.7998C243.4 83.7998 248 59.5998 248 47.2998Z" fill="black"/>
<path d="M298.6 74.9998C298.6 61.1998 274.2 67.2998 274.2 48.0998C274.2 36.0998 285.3 29.2998 297.1 29.2998C307.5 29.2998 313.1 33.7998 313.1 40.9998C313.1 45.9998 310.7 50.1998 305.2 50.1998C301.9 50.1998 299.2 48.3998 299.2 45.2998C299.2 43.4998 299.7 41.6998 301 40.0998H304.3C304.7 39.3998 304.8 38.7998 304.8 38.1998C304.8 35.6998 302.1 34.4998 297.1 34.4998C291.4 34.4998 283.2 37.0998 283.2 44.9998C283.2 56.8998 308.7 53.4998 308.7 71.8998C308.7 83.0998 298.3 91.1998 284.9 91.1998C271.9 91.1998 267 84.7998 267 77.9998C267 72.5998 270 68.4998 275.2 68.4998C278.5 68.4998 281 70.4998 281 73.8998C281 75.5998 280.5 77.4998 279.2 78.9998H275.7C275.3 79.7998 275.2 80.4998 275.2 81.2998C275.2 84.3998 278.3 86.1998 285.1 86.1998C292.1 85.8998 298.6 83.0998 298.6 74.9998Z" fill="black"/>
<path d="M365.2 43.5999C365.2 49.5999 362.5 54.2999 356.1 54.2999C352.2 54.2999 349.3 52.2999 349.3 48.6999C349.3 46.6999 349.9 44.4999 351.2 42.5999H355.1C355.7 41.1999 355.9 39.9999 355.9 38.8999C355.9 35.8999 353.3 34.3999 348.8 34.3999C333.2 34.3999 327.6 52.4999 327.6 68.0999C327.6 78.4999 331.1 84.2999 339.5 84.2999C348.2 84.2999 352.7 78.4999 356.5 68.6999L361.5 70.1999C358.8 80.6999 350.7 90.8998 336.2 90.8998C322.9 90.8998 316.1 82.1999 316.1 68.2999C316.1 48.9999 327.4 29.0999 348.9 29.0999C359.8 29.1999 365.2 35.4999 365.2 43.5999Z" fill="black"/>
<path d="M398.5 32.2998C412 32.2998 418 40.6998 418 53.4998C418 70.7998 407.6 91.0998 387.9 91.0998C374.6 91.0998 368.3 82.6998 368.3 69.7998C368.3 52.1998 378.7 32.2998 398.5 32.2998ZM407.2 51.3998C407.2 43.4998 404.5 37.3998 396.9 37.3998C383.1 37.3998 378.9 58.6998 378.9 71.8998C378.9 80.3998 381.7 85.8998 389.2 85.8998C403.1 85.8998 407.2 64.3998 407.2 51.3998Z" fill="black"/>
<path d="M526.7 42.8C526.7 62.6 501.3 64.8 491.6 65.2C491.5 77.7 494 84.1 503.5 84.1C510.1 84.1 515.9 80.4 520.7 68.6L525.7 70.3C521.8 83.2 512.4 91 500 91C487.1 91 480.2 82.7 480.2 68.5C480.2 48.6 493.2 29.2 511.7 29.2C520.7 29.2 526.7 33.9 526.7 42.8ZM509.5 34.5C502.5 34.5 494.4 43.8 492 60.5C504.9 59.7 516.3 54.8 516.3 42.5C516.3 37 513.7 34.5 509.5 34.5Z" fill="black"/>
</svg>
