<?xml version="1.0" encoding="utf-8"?>
<!-- Generator: Adobe Illustrator 28.3.0, SVG Export Plug-In . SVG Version: 6.00 Build 0)  -->
<svg version="1.1" id="Layer_1" xmlns="http://www.w3.org/2000/svg" xmlns:xlink="http://www.w3.org/1999/xlink" x="0px" y="0px"
	 viewBox="0 0 526.7 160.6" style="enable-background:new 0 0 526.7 160.6;" xml:space="preserve">
<style type="text/css">
	.st0{fill:#FF3573;}
	.st1{fill:#FFFFFF;}
</style>
<circle cx="401.4" cy="96.2" r="15.6"/>
<circle cx="459.2" cy="96.2" r="15.6"/>
<g>
	<path class="st0" d="M186.7,2.9l5.4,14.6l14.6,5.4c3.8,1.4,3.8,6.9,0,8.3l-14.6,5.4l-5.4,14.6c-1.4,3.8-6.9,3.8-8.3,0L173,36.6
		l-14.6-5.4c-3.8-1.4-3.8-6.9,0-8.3l14.6-5.4l5.4-14.6C179.8-1,185.2-1,186.7,2.9z"/>
	<path class="st0" d="M222,42l2.7,7.2l7.2,2.7c3.8,1.4,3.8,6.9,0,8.3l-7.2,2.7l-2.7,7.2c-1.4,3.8-6.9,3.8-8.3,0l-2.7-7.2l-7.2-2.7
		c-3.8-1.4-3.8-6.9,0-8.3l7.2-2.7l2.7-7.2C215.1,38.2,220.6,38.2,222,42z"/>
</g>
<g>
	<path d="M69.5,81.7h-8.2C61.5,66.8,58.1,63,50,63h-2.7l-11,63.7l10.2,1l-1.5,9.1H5.7l1.5-9.1l10.5-1l11-63.7h-3.8
		c-8.6,0-11.6,5.1-16.1,18.7H0l6.1-28.4h67.3L69.5,81.7z"/>
	<path d="M116.6,90.3c0,19.1-24.5,21.4-34.7,21.8c-0.2,11.1,1.9,16.1,9.5,16.1c6.8,0,10.8-4.2,14.9-13.1l7.6,2.6
		c-4.1,12.9-14.2,20.4-27.5,20.4c-14.5,0-22.4-8.3-22.4-22.9c0-20.3,13-39.4,34.6-39.4C109.8,75.8,116.6,80.9,116.6,90.3z
		 M96.3,82.9c-6.6,0-11.3,8.5-13.2,21.1c10.1-0.8,18.1-3.7,18.1-14.4C101.2,85.2,99.5,82.9,96.3,82.9z"/>
	<path d="M124.7,55.1l1.4-7.7h26.1l0.5,1.2c-3,15.1-15,67.4-15,76.4c0,2.6,1.3,3.8,3.6,3.8c1.5,0,3.3-1,5.4-3l3.2,3.8
		c-3.9,5-9.7,8.5-16.4,8.5c-6.7,0-12.6-2.9-12.6-12.3c0-5.5,2.3-15,5-28.7c2.6-12.5,5.5-27.3,8.1-40.6L124.7,55.1z"/>
	<path d="M204.4,90.3c0,19.1-24.5,21.4-34.7,21.8c-0.2,11.1,1.9,16.1,9.5,16.1c6.8,0,10.8-4.2,14.9-13.1l7.6,2.6
		c-4.1,12.9-14.2,20.4-27.5,20.4c-14.5,0-22.4-8.3-22.4-22.9c0-20.3,13-39.4,34.6-39.4C197.6,75.8,204.4,80.9,204.4,90.3z
		 M184.2,82.9c-6.6,0-11.3,8.5-13.2,21.1c10.1-0.8,18.1-3.7,18.1-14.4C189.1,85.2,187.4,82.9,184.2,82.9z"/>
	<path d="M242.2,75.8c16.6,0,23.4,8.9,23.4,23.1c0,19.4-12.4,39.2-34.9,39.2c-16.9,0-23.6-8.9-23.6-23
		C207.1,94.9,219.7,75.8,242.2,75.8z M248,94.3c0-7-2-11.4-7.5-11.4c-11,0-15.5,22.4-15.5,36.3c0,8,2,11.6,7.3,11.6
		C243.4,130.8,248,106.6,248,94.3z"/>
	<path d="M298.6,122c0-13.8-24.4-7.7-24.4-26.9c0-12,11.1-18.8,22.9-18.8c10.4,0,16,4.5,16,11.7c0,5-2.4,9.2-7.9,9.2
		c-3.3,0-6-1.8-6-4.9c0-1.8,0.5-3.6,1.8-5.2h3.3c0.4-0.7,0.5-1.3,0.5-1.9c0-2.5-2.7-3.7-7.7-3.7c-5.7,0-13.9,2.6-13.9,10.5
		c0,11.9,25.5,8.5,25.5,26.9c0,11.2-10.4,19.3-23.8,19.3c-13,0-17.9-6.4-17.9-13.2c0-5.4,3-9.5,8.2-9.5c3.3,0,5.8,2,5.8,5.4
		c0,1.7-0.5,3.6-1.8,5.1h-3.5c-0.4,0.8-0.5,1.5-0.5,2.3c0,3.1,3.1,4.9,9.9,4.9C292.1,132.9,298.6,130.1,298.6,122z"/>
	<path d="M365.2,90.6c0,6-2.7,10.7-9.1,10.7c-3.9,0-6.8-2-6.8-5.6c0-2,0.6-4.2,1.9-6.1h3.9c0.6-1.4,0.8-2.6,0.8-3.7
		c0-3-2.6-4.5-7.1-4.5c-15.6,0-21.2,18.1-21.2,33.7c0,10.4,3.5,16.2,11.9,16.2c8.7,0,13.2-5.8,17-15.6l5,1.5
		c-2.7,10.5-10.8,20.7-25.3,20.7c-13.3,0-20.1-8.7-20.1-22.6c0-19.3,11.3-39.2,32.8-39.2C359.8,76.2,365.2,82.5,365.2,90.6z"/>
	<path d="M398.5,79.3c13.5,0,19.5,8.4,19.5,21.2c0,17.3-10.4,37.6-30.1,37.6c-13.3,0-19.6-8.4-19.6-21.3
		C368.3,99.2,378.7,79.3,398.5,79.3z M407.2,98.4c0-7.9-2.7-14-10.3-14c-13.8,0-18,21.3-18,34.5c0,8.5,2.8,14,10.3,14
		C403.1,132.9,407.2,111.4,407.2,98.4z"/>
	<path d="M526.7,89.8c0,19.8-25.4,22-35.1,22.4c-0.1,12.5,2.4,18.9,11.9,18.9c6.6,0,12.4-3.7,17.2-15.5l5,1.7
		c-3.9,12.9-13.3,20.7-25.7,20.7c-12.9,0-19.8-8.3-19.8-22.5c0-19.9,13-39.3,31.5-39.3C520.7,76.2,526.7,80.9,526.7,89.8z
		 M509.5,81.5c-7,0-15.1,9.3-17.5,26c12.9-0.8,24.3-5.7,24.3-18C516.3,84,513.7,81.5,509.5,81.5z"/>
</g>
<path d="M460.1,76.2c-10.5,0-18.2,6.9-23,17.5l-0.6-0.1l3.6-14.9l-0.4-1.2h-18.8l-0.8,4.4l9.1,1.1l-11.5,69.5c0,0,4,2.7,4,2.7
	c-5.1,0.5-10.3,0.5-15.4,0.7c-4.7,0.2-9.6,0.2-14-1.7c-1-0.4-1.9-0.9-2.8-1.6l-0.7,0.5c0.8,0.9,1.8,1.7,2.8,2.4
	c3.2,2,6.1,3.5,9.9,4.2c5.1,0.9,10.1,0.9,15.3,0.9c3.9,0,7.8,0,11.7,0c3.2,0,6.4,0,9.7,0c0.1,0,2.2,0.1,2.2,0c0,0,0.8-4.8,0.8-4.8
	l-13.6-1.1l4.1-25c2,4.6,7.1,8.3,14.5,8.3c19.2,0,29-23.7,29-41.2C475,84,470.1,76.2,460.1,76.2z M444.6,132.6
	c-7.3,0-10.2-5.8-10.2-13c0-11.9,7.7-35.9,21-35.9c6.4,0,8.2,5.1,8.2,12.6C463.6,111.7,458.6,132.6,444.6,132.6z"/>
<g>
	<ellipse transform="matrix(0.7972 -0.6037 0.6037 0.7972 23.8709 258.3593)" class="st1" cx="396.5" cy="93.6" rx="5.8" ry="7.4"/>
</g>
<g>
	<ellipse transform="matrix(0.7972 -0.6037 0.6037 0.7972 35.5557 293.1474)" class="st1" cx="454.2" cy="93.6" rx="5.8" ry="7.4"/>
</g>
</svg>
