<svg width="80" height="73" viewBox="0 0 80 73" fill="none" xmlns="http://www.w3.org/2000/svg">
<path d="M31.15 2.925L36.55 17.525L51.15 22.925C54.95 24.325 54.95 29.825 51.15 31.225L36.55 36.625L31.15 51.225C29.75 55.025 24.25 55.025 22.85 51.225L17.45 36.625L2.85 31.225C-0.95 29.825 -0.95 24.325 2.85 22.925L17.45 17.525L22.85 2.925C24.25 -0.975 29.65 -0.975 31.15 2.925Z" fill="#FF3573"/>
<path d="M66.4499 42.025L69.1499 49.225L76.3499 51.9251C80.1499 53.3251 80.1499 58.825 76.3499 60.225L69.1499 62.9251L66.4499 70.125C65.0499 73.925 59.5499 73.925 58.1499 70.125L55.4499 62.9251L48.2499 60.225C44.4499 58.825 44.4499 53.3251 48.2499 51.9251L55.4499 49.225L58.1499 42.025C59.5499 38.225 65.0499 38.225 66.4499 42.025Z" fill="#FF3573"/>
</svg>
