<?xml version="1.0" encoding="UTF-8"?>
<svg id="Layer_1" xmlns="http://www.w3.org/2000/svg" version="1.1" viewBox="0 0 800 800">
  <!-- Generator: Adobe Illustrator 29.0.0, SVG Export Plug-In . SVG Version: 2.1.0 Build 186)  -->
  <defs>
    <style>
      .st0 {
        fill: none;
        stroke: #000;
        stroke-linecap: round;
        stroke-linejoin: round;
        stroke-width: 2px;
      }
    </style>
  </defs>
  <path class="st0" d="M687.7,647.5h-306.9c-6.2,0-11.3-5.1-11.3-11.3v-21.3c0-6.2,2.5-11.3,5.5-11.3s5.5-5.1,5.5-11.3v-12.3c0-6.2-5.1-11.3-11.3-11.3h-12.3c-6.2,0-11.3-2.2-11.3-5s-5.1-5-11.3-5h-19.3c-6.2,0-11.3-3.4-11.3-7.5s-4.1-7.5-9-7.5-9-4.7-9-10.5,5.1-10.5,11.3-10.5h13.3c6.2,0,11.3-5.1,11.3-11.3v-17.3c0-6.2-5.1-11.3-11.3-11.3h-6.3c-6.2,0-11.3,3.4-11.3,7.5s-3.4,7.5-7.5,7.5-7.5-5.1-7.5-11.3v-22.3c0-6.2-4.1-11.3-9-11.3s-9,5.1-9,11.3v20.3c0,6.2-4.5,11.3-10,11.3s-10,5.1-10,11.3v.3c0,6.2,5.1,11.3,11.3,11.3h26.3c6.2,0,11.3-5.1,11.3-11.3v-5.3c0-6.2-5.1-11.3-11.3-11.3h-1.3c-6.2,0-11.3-2.2-11.3-5s5.1-5,11.3-5h1.3c6.2,0,11.3,3.4,11.3,7.5s5.1,7.5,11.3,7.5h16.3c6.2,0,11.3-5.1,11.3-11.3v-2.3c0-6.2-5-11.3-11-11.3s-11,5.1-11,11.3v19.3c0,6.2-5.1,11.3-11.3,11.3h-4.3c-6.2,0-11.3,2.5-11.3,5.5s-5.1,5.5-11.3,5.5h-26.3c-6.2,0-11.3,3.8-11.3,8.5s5.1,8.5,11.3,8.5h21.3c6.2,0,11.3,4.5,11.3,10s5.1,10,11.3,10h6.3c6.2,0,11.3-5.1,11.3-11.3v-9.3c0-6.2-5.1-11.3-11.3-11.3h-6.3c-6.2,0-11.3-3.4-11.3-7.5s-5.1-7.5-11.3-7.5h-3.3c-6.2,0-11.3,3.8-11.3,8.5s-5.1,8.5-11.3,8.5h-10.3c-6.2,0-11.3-3.8-11.3-8.5s5.1-8.5,11.3-8.5h17.3c6.2,0,11.3-5.1,11.3-11.3v-2.3c0-6.2,5.1-11.3,11.3-11.3h6.3c6.2,0,11.3-5.1,11.3-11.3v-8.3c0-6.2-3.6-11.3-8-11.3s-8-5.1-8-11.3v-18.3c0-6.2,5.1-11.3,11.3-11.3h20.3c6.2,0,11.3,3.1,11.3,7s-2.9,7-6.5,7-6.5-5.1-6.5-11.3v-4.3c0-6.2,3.6-11.3,8-11.3s8,5.1,8,11.3v18.3c0,6.2-5,11.3-11,11.3s-11-5.1-11-11.3v-14.3c0-6.2-3.6-11.3-8-11.3s-8-5.1-8-11.3v-9.3c0-6.2-5.1-11.3-11.3-11.3h-5.3c-6.2,0-11.3-5.1-11.3-11.3v-14.3c0-6.2-5.1-11.3-11.3-11.3h-7.3c-6.2,0-11.3,3.6-11.3,8s3.1,8,7,8,7-5.1,7-11.3v-.3c0-6.2-2.2-11.3-5-11.3s-5-5.1-5-11.3v-27.3c0-6.2-3.4-11.3-7.5-11.3s-7.5-5.1-7.5-11.3v-16.3c0-6.2-5.1-11.3-11.3-11.3h-16.3c-6.2,0-11.3-5.1-11.3-11.3v-13.3c0-6.2-5.1-11.3-11.3-11.3h-22.3c-6.2,0-11.3-5.1-11.3-11.3v-4.3c0-6.2-5.1-11.3-11.3-11.3h-10.3c-6.2,0-11.3,5.1-11.3,11.3v15.3c0,6.2-5.1,11.3-11.3,11.3h-8.3c-6.2,0-11.3,5.1-11.3,11.3v24.3c0,6.2,5.1,11.3,11.3,11.3h5.3c6.2,0,11.3-5.1,11.3-11.3v-22.3c0-6.2,5.1-11.3,11.3-11.3h4.3c6.2,0,11.3,5.1,11.3,11.3v6.3c0,6.2,5.1,11.3,11.3,11.3h8.3c6.2,0,11.3,4,11.3,9s5.1,9,11.3,9h5.3c6.2,0,11.3,5.1,11.3,11.3v26.3c0,6.2,5.1,11.3,11.3,11.3h1.3c6.2,0,11.3-5.1,11.3-11.3v-13.3c0-6.2,5.1-11.3,11.3-11.3h6.3c6.2,0,11.3-5.1,11.3-11.3v-22.3c0-6.2-5.1-11.3-11.3-11.3h-5.3c-6.2,0-11.3,5.1-11.3,11.3v12.3c0,6.2,5.1,11.3,11.3,11.3h9.3c6.2,0,11.3,5.1,11.3,11.3v7.3c0,6.2,5.1,11.3,11.3,11.3h19.3c6.2,0,11.3-2.7,11.3-6s5.1-6,11.3-6h21.3c6.2,0,11.3-3.6,11.3-8s-5.1-8-11.3-8h-5.3c-6.2,0-11.3-5.1-11.3-11.3v-6.3c0-6.2-5.1-11.3-11.3-11.3h-18.3c-6.2,0-11.3,5.1-11.3,11.3v24.3c0,6.2,2.5,11.3,5.5,11.3s5.5,5.1,5.5,11.3v7.3c0,6.2-5.1,11.3-11.3,11.3h-7.3c-6.2,0-11.3-3.8-11.3-8.5s-3.6-8.5-8-8.5-8-5.1-8-11.3v-19.3c0-6.2,5.1-11.3,11.3-11.3h17.3c6.2,0,11.3,5.1,11.3,11.3v15.3c0,6.2-5.1,11.3-11.3,11.3h-16.3c-6.2,0-11.3,5.1-11.3,11.3v26.3c0,6.2,5.1,11.3,11.3,11.3h18.3c6.2,0,11.3-2.7,11.3-6s-5.1-6-11.3-6h-15.3c-6.2,0-11.3,5.1-11.3,11.3v12.3c0,6.2,5.1,11.3,11.3,11.3h2.3c6.2,0,11.3,5.1,11.3,11.3v.3c0,6.2,5.1,11.3,11.3,11.3h3.3c6.2,0,11.3,3.6,11.3,8s2.2,8,5,8,5-5,5-11,3.1-11,7-11,7-5.1,7-11.3v-2.3c0-6.2-5.1-11.3-11.3-11.3h-25.3c-6.2,0-11.3,5.1-11.3,11.3v9.3c0,6.2-5.1,11.3-11.3,11.3h-23.3c-6.2,0-11.3-3.6-11.3-8s-5.1-8-11.3-8h-18.3c-6.2,0-11.3-5.1-11.3-11.3v-15.3c0-6.2,5.1-11.3,11.3-11.3h13.3c6.2,0,11.3-4.3,11.3-9.5s5.1-9.5,11.3-9.5h11.3c6.2,0,11.3-3.1,11.3-7s-5.1-7-11.3-7h-1.3c-6.2,0-11.3,5.1-11.3,11.3v18.3c0,6.2,3.4,11.3,7.5,11.3s7.5,5.1,7.5,11.3v13.3c0,6.2-5.1,11.3-11.3,11.3h-8.3c-6.2,0-11.3,5.1-11.3,11.3v25.3c0,6.2-4.9,11.3-11,11.3s-11-5.1-11-11.3v-3.3c0-6.2,5.1-11.3,11.3-11.3h26.3c6.2,0,11.3-5.1,11.3-11.3v-17.3c0-6.2-3.8-11.3-8.5-11.3s-8.5-5.1-8.5-11.3v-3.3c0-6.2,5.1-11.3,11.3-11.3h4.3c6.2,0,11.3,5.1,11.3,11.3v6.3c0,6.2-5.1,11.3-11.3,11.3h-22.3c-6.2,0-11.3-5.1-11.3-11.3v-25.3c0-6.2,5.1-11.3,11.3-11.3h13.3c6.2,0,11.3-5.1,11.3-11.3v-2.3c0-6.2-5.1-11.3-11.3-11.3h-11.3c-6.2,0-11.3,2.9-11.3,6.5s3.8,6.5,8.5,6.5,8.5,3.1,8.5,7,5.1,7,11.3,7h14.3c6.2,0,11.3,5.1,11.3,11.3v15.3c0,6.2,5.1,11.3,11.3,11.3h4.3c6.2,0,11.3,5.1,11.3,11.3v7.3c0,6.2-5.1,11.3-11.3,11.3h-13.3c-6.2,0-11.3,5.1-11.3,11.3v16.3c0,6.2,5.1,11.3,11.3,11.3h2.3c6.2,0,11.3-3.8,11.3-8.5s-2.2-8.5-5-8.5-5-5.1-5-11.3v-14.3c0-6.2,3.1-11.3,7-11.3s7-4.3,7-9.5,3.4-9.5,7.5-9.5,7.5,4,7.5,9,5.1,9,11.3,9h9.3c6.2,0,11.3-5.1,11.3-11.3v-20.3c0-6.2-5.1-11.3-11.3-11.3h-3.3c-6.2,0-11.3-4-11.3-9s2.9-9,6.5-9,6.5-5.1,6.5-11.3v-18.3c0-6.2-5.1-11.3-11.3-11.3h-11.3c-6.2,0-11.3-4.5-11.3-10s-4.7-10-10.5-10-10.5-5.1-10.5-11.3v-15.3c0-6.2-5.1-11.3-11.3-11.3h-11.3c-6.2,0-11.3,5.1-11.3,11.3v1.3c0,6.2-4.5,11.3-10,11.3s-10,5.1-10,11.3v5.3c0,6.2,2.5,11.3,5.5,11.3s5.5,5.1,5.5,11.3v13.3c0,6.2,2.9,11.3,6.5,11.3s6.5-5.1,6.5-11.3v-15.3c0-6.2-5.1-11.3-11.3-11.3h-19.3c-6.2,0-11.3,3.8-11.3,8.5s5.1,8.5,11.3,8.5h27.3c6.2,0,11.3,5.1,11.3,11.3v7.3c0,6.2,4.9,11.3,11,11.3s11,3.8,11,8.5-3.8,8.5-8.5,8.5-8.5-4-8.5-9,4.1-9,9-9,9-2.2,9-5,5.1-5,11.3-5h.3c6.2,0,11.3-5.1,11.3-11.3v-10.3c0-6.2-5.1-11.3-11.3-11.3h-1.3c-6.2,0-11.3-5.1-11.3-11.3v-14.3c0-6.2,2.7-11.3,6-11.3s6,2.5,6,5.5-3.2,5.5-7,5.5-7,4.5-7,10,5.1,10,11.3,10h15.3c6.2,0,11.3-5.1,11.3-11.3v-7.3c0-6.2,5.1-11.3,11.3-11.3h7.3c6.2,0,11.3,5.1,11.3,11.3v22.3c0,6.2-3.4,11.3-7.5,11.3s-7.5,3.2-7.5,7,5.1,7,11.3,7h21.3c6.2,0,11.3-3.8,11.3-8.5s5.1-8.5,11.3-8.5h10.3c6.2,0,11.3-5.1,11.3-11.3v-22.3c0-6.2,5.1-11.3,11.3-11.3h13.3c6.2,0,11.3-3.8,11.3-8.5s-4.5-8.5-10-8.5-10-5.1-10-11.3v-6.3c0-6.2,5.1-11.3,11.3-11.3h5.3c6.2,0,11.3,5.1,11.3,11.3v15.3c0,6.2-5.1,11.3-11.3,11.3h-15.3c-6.2,0-11.3-5.1-11.3-11.3v-24.3c0-6.2,5.1-11.3,11.3-11.3h25.3c6.2,0,11.3-5,11.3-11s-5.1-11-11.3-11h-16.3c-6.2,0-11.3,5.1-11.3,11.3v8.3c0,6.2,5.1,11.3,11.3,11.3h9.3c6.2,0,11.3,5,11.3,11s5.1,11,11.3,11h11.3c6.2,0,11.3-5.1,11.3-11.3v-1.3c0-6.2-5.1-11.3-11.3-11.3h-26.3c-6.2,0-11.3,5.1-11.3,11.3v11.3c0,6.2-5.1,11.3-11.3,11.3h-24.3c-6.2,0-11.3-5.1-11.3-11.3v-21.3c0-6.2,5.1-11.3,11.3-11.3h24.3c6.2,0,11.3,5.1,11.3,11.3v18.3c0,6.2-5.1,11.3-11.3,11.3h-20.3c-6.2,0-11.3-5.1-11.3-11.3v-1.3c0-6.2-5.1-11.3-11.3-11.3h-3.3c-6.2,0-11.3,3.2-11.3,7s5.1,7,11.3,7h4.3c6.2,0,11.3,5.1,11.3,11.3v1.3c0,6.2-5.1,11.3-11.3,11.3h-2.3c-6.2,0-11.3,5.1-11.3,11.3v15.3c0,6.2,4.9,11.3,11,11.3s11,5.1,11,11.3v23.3c0,6.2-5.1,11.3-11.3,11.3h-19.3c-6.2,0-11.3,5.1-11.3,11.3v15.3c0,6.2-5.1,11.3-11.3,11.3h-20.3c-6.2,0-11.3,5.1-11.3,11.3v18.3c0,6.2-4.5,11.3-10,11.3s-10,5.1-10,11.3v11.3c0,6.2-5.1,11.3-11.3,11.3h-11.3c-6.2,0-11.3,5.1-11.3,11.3v24.3c0,6.2,5.1,11.3,11.3,11.3h4.3c6.2,0,11.3-4.5,11.3-10s4.9-10,11-10,11-3.8,11-8.5,3.1-8.5,7-8.5,7,5.1,7,11.3v3.3c0,6.2-5,11.3-11,11.3s-11-5-11-11-3.6-11-8-11-8,4-8,9,5.1,9,11.3,9h5.3c6.2,0,11.3,5.1,11.3,11.3v17.3c0,6.2-5.1,11.3-11.3,11.3h-4.3c-6.2,0-11.3-5.1-11.3-11.3v-21.3c0-6.2,4.5-11.3,10-11.3s10-3.8,10-8.5-3.4-8.5-7.5-8.5-7.5,3.4-7.5,7.5-3.2,7.5-7,7.5-7-5.1-7-11.3v-4.3c0-6.2,5.1-11.3,11.3-11.3h1.3c6.2,0,11.3,3.1,11.3,7s5.1,7,11.3,7h16.3c6.2,0,11.3-3.8,11.3-8.5s5.1-8.5,11.3-8.5h9.3c6.2,0,11.3,5.1,11.3,11.3v20.3c0,6.2-5.1,11.3-11.3,11.3h-14.3c-6.2,0-11.3,5.1-11.3,11.3v7.3c0,6.2-5.1,11.3-11.3,11.3h-26.3c-6.2,0-11.3-5.1-11.3-11.3v-11.3c0-6.2-5.1-11.3-11.3-11.3h-4.3c-6.2,0-11.3,5-11.3,11s-5.1,11-11.3,11h-19.3c-6.2,0-11.3,2.7-11.3,6s-2.9,6-6.5,6-6.5,5.1-6.5,11.3v24.3c0,6.2,3.4,11.3,7.5,11.3s7.5-5.1,7.5-11.3v-17.3c0-6.2,5.1-11.3,11.3-11.3h24.3c6.2,0,11.3,5,11.3,11s5.1,11,11.3,11h23.3c6.2,0,11.3,2.5,11.3,5.5s5.1,5.5,11.3,5.5h16.3c6.2,0,11.3,5.1,11.3,11.3v9.3c0,6.2,5.1,11.3,11.3,11.3h18.3c6.2,0,11.3,5.1,11.3,11.3v22.3c0,6.2,5.1,11.3,11.3,11.3h17.3c6.2,0,11.3-2.2,11.3-5s-2.5-5-5.5-5-5.5-5.1-5.5-11.3v-18.3c0-6.2-5.1-11.3-11.3-11.3h-.3c-6.2,0-11.3-4.5-11.3-10s5.1-10,11.3-10h3.3c6.2,0,11.3,5.1,11.3,11.3v19.3c0,6.2,5.1,11.3,11.3,11.3h4.3c6.2,0,11.3-3.8,11.3-8.5s-5.1-8.5-11.3-8.5h-2.3c-6.2,0-11.3-2.2-11.3-5s3.6-5,8-5,8,5.1,8,11.3v18.3c0,6.2-5.1,11.3-11.3,11.3h-.3c-6.2,0-11.3,5.1-11.3,11.3v4.3c0,6.2,4.7,11.3,10.5,11.3s10.5-3.1,10.5-7,5.1-7,11.3-7h19.3c6.2,0,11.3-5.1,11.3-11.3v-22.3c0-6.2-5.1-11.3-11.3-11.3h-24.3c-6.2,0-11.3,2.5-11.3,5.5s5.1,5.5,11.3,5.5h14.3c6.2,0,11.3-5.1,11.3-11.3v-27.3c0-6.2,5.1-11.3,11.3-11.3h23.3c6.2,0,11.3,5.1,11.3,11.3v23.3c0,6.2-5.1,11.3-11.3,11.3h-13.3c-6.2,0-11.3-5.1-11.3-11.3v-18.3c0-6.2-2.5-11.3-5.5-11.3s-5.5-5.1-5.5-11.3v-11.3c0-6.2,4.7-11.3,10.5-11.3s10.5,3.8,10.5,8.5,5.1,8.5,11.3,8.5h17.3c6.2,0,11.3,3.1,11.3,7s5.1,7,11.3,7h19.3c6.2,0,11.3-5.1,11.3-11.3v-24.3c0-6.2-5-11.3-11-11.3s-11-5.1-11-11.3v-24.3c0-6.2,5.1-11.3,11.3-11.3h22.3c6.2,0,11.3,5.1,11.3,11.3v.3c0,6.2-3.2,11.3-7,11.3s-7,5.1-7,11.3v25.3c0,6.2,5.1,11.3,11.3,11.3h17.3c6.2,0,11.3-5.1,11.3-11.3v-10.3c0-6.2-5.1-11.3-11.3-11.3h-21.3c-6.2,0-11.3-2.2-11.3-5s3.2-5,7-5,7,5.1,7,11.3v1.3c0,6.2-2.9,11.3-6.5,11.3s-6.5,3.4-6.5,7.5-5.1,7.5-11.3,7.5h-9.3c-6.2,0-11.3-4-11.3-9s2.5-9,5.5-9,5.5,5.1,5.5,11.3v25.3c0,6.2,5.1,11.3,11.3,11.3h25.3c6.2,0,11.3,3.6,11.3,8s-5.1,8-11.3,8h-18.3c-6.2,0-11.3,5.1-11.3,11.3v16.3c0,6.2-5.1,11.3-11.3,11.3h-12.3c-6.2,0-11.3-5.1-11.3-11.3v-11.3c0-6.2-4.5-11.3-10-11.3s-10,4.7-10,10.5-5.1,10.5-11.3,10.5h-23.3c-6.2,0-11.3,5.1-11.3,11.3v21.3c0,6.2-2.9,11.3-6.5,11.3s-6.5-5.1-6.5-11.3v-27.3c0-6.2,5.1-11.3,11.3-11.3h11.3c6.2,0,11.3,5.1,11.3,11.3v7.3c0,6.2-5.1,11.3-11.3,11.3h-25.3c-6.2,0-11.3-5.1-11.3-11.3v-9.3c0-6.2-4.7-11.3-10.5-11.3s-10.5-5.1-10.5-11.3v-6.3c0-6.2-5.1-11.3-11.3-11.3h-1.3c-6.2,0-11.3,5.1-11.3,11.3v9.3c0,6.2,5.1,11.3,11.3,11.3h18.3c6.2,0,11.3-5.1,11.3-11.3v-11.3c0-6.2,4.9-11.3,11-11.3s11,5.1,11,11.3v5.3c0,6.2,5.1,11.3,11.3,11.3h2.3c6.2,0,11.3-3.6,11.3-8s-5.1-8-11.3-8h-6.3c-6.2,0-11.3,5.1-11.3,11.3v1.3c0,6.2-3.1,11.3-7,11.3s-7-5.1-7-11.3v-9.3c0-6.2,2.7-11.3,6-11.3s6-5.1,6-11.3v-.3c0-6.2-5.1-11.3-11.3-11.3"/>
  <polygon points="681.1 639.3 679.7 640.8 687 647.5 679.7 654.2 681.1 655.7 689.9 647.5 681.1 639.3"/>
  <path d="M389.2,513.6c-3.4,0-6.9,0-9.6,2.3-2.2,1.8-3.7,5.2-4,8.1h-19.1c.7-5.2,3.4-9.6,8.4-11.5-4.9-1.8-7.8-6.5-8.3-11.5h19.1c.3,3.1,2.3,7.1,4.7,8.9,2.4,1.7,6,1.7,8.8,1.8v2Z"/>
</svg>