<svg width="2860" height="1967" viewBox="0 0 2860 1967" fill="none" xmlns="http://www.w3.org/2000/svg">
<g filter="url(#filter0_f_126_8170)">
<ellipse cx="651" cy="1193.5" rx="501" ry="460.5" fill="#84CBFF" fill-opacity="0.82"/>
</g>
<g filter="url(#filter1_f_126_8170)">
<path d="M2062.28 677.116C1864.79 695.365 1721.67 574.44 1486.05 533.728C1314.97 504.167 1106.22 388.118 1037.65 479.353C975.799 561.655 1235.17 573.257 1304.8 653.653C1489.18 866.518 895.251 1002.63 991.665 1232.42C1021.92 1304.52 1034.8 1351.05 1120.17 1408.21C1382.67 1583.96 1212.82 951.229 1621.32 894.991C2029.81 838.753 1405.04 1176.04 1621.32 1232.42C1814.34 1282.73 1980.02 1185.49 2102.18 1089.03C2269.52 956.898 2259.76 658.867 2062.28 677.116Z" fill="#84CBFF" fill-opacity="0.82"/>
</g>
<g filter="url(#filter2_f_126_8170)">
<path d="M2616.34 824.388C2616.34 824.388 2180.31 594.598 1975.35 731.557C1784.06 859.376 1785.87 1063.38 1842.13 1274.49C1906.44 1515.82 2374.47 2017.64 2326.42 1729.11C2278.37 1440.58 2430.16 1403.95 2616.34 1274.49C2802.53 1145.03 2616.34 824.388 2616.34 824.388Z" fill="#FEC9E9"/>
</g>
<g filter="url(#filter3_f_126_8170)">
<path d="M1300.86 697.879C1202.82 511.108 1016.75 457.032 791.367 447.529C567.538 438.092 265.018 445.013 262.013 650.938C259.584 817.383 601.675 941.15 601.675 941.15C601.675 941.15 868.024 1343.98 1103.47 1284.26C1354.87 1220.5 1414.18 913.773 1300.86 697.879Z" fill="#FFB9E3"/>
</g>
<g filter="url(#filter4_f_126_8170)">
<path d="M1265.86 402.879C1167.82 216.108 981.747 162.032 756.367 152.529C532.538 143.092 230.018 150.013 227.013 355.938C224.584 522.383 566.675 646.15 566.675 646.15C566.675 646.15 833.024 1048.98 1068.47 989.263C1319.87 925.5 1379.18 618.773 1265.86 402.879Z" fill="#FFB9E3" fill-opacity="0.37"/>
</g>
<g filter="url(#filter5_f_126_8170)">
<ellipse cx="2174" cy="979.975" rx="396.002" ry="363.975" fill="#84CBFF" fill-opacity="0.82"/>
</g>
<g filter="url(#filter6_f_126_8170)">
<ellipse cx="2314" cy="589.975" rx="396.002" ry="363.975" fill="#84CBFF" fill-opacity="0.44"/>
</g>
<g filter="url(#filter7_f_126_8170)">
<path d="M1924.86 1012.77C1826.82 825.996 1261.33 1012.77 1369.15 768.456C1453.37 577.615 889.018 759.901 886.013 965.825C883.584 1132.27 1225.67 1256.04 1225.67 1256.04C1225.67 1256.04 1492.02 1658.86 1727.47 1599.15C1978.87 1535.39 2038.18 1228.66 1924.86 1012.77Z" fill="#FFB9E3"/>
</g>
<g filter="url(#filter8_f_126_8170)">
<path d="M2270.56 719.864C2073.03 741.475 1929.86 598.279 1694.19 550.069C1523.06 515.063 1314.26 377.642 1245.67 485.679C1183.8 583.139 1443.23 596.878 1512.89 692.08C1697.31 944.148 1103.23 1105.33 1199.67 1377.43C1229.93 1462.82 1242.81 1517.92 1328.2 1585.6C1590.78 1793.72 1420.88 1044.46 1829.49 977.865C2238.09 911.27 1613.15 1310.67 1829.49 1377.43C2022.56 1437.02 2188.29 1321.86 2310.48 1207.64C2477.86 1051.17 2468.1 698.254 2270.56 719.864Z" fill="url(#paint0_radial_126_8170)" fill-opacity="0.81"/>
</g>
<g filter="url(#filter9_f_126_8170)">
<path d="M2156.56 474.864C1959.03 496.475 1815.86 353.279 1580.19 305.069C1409.06 270.063 1200.26 132.642 1131.67 240.679C1069.8 338.139 1329.23 351.878 1398.89 447.08C1583.31 699.148 989.228 860.329 1085.67 1132.43C1115.93 1217.82 1128.81 1272.92 1214.2 1340.6C1476.78 1548.72 1306.88 799.459 1715.49 732.865C2124.09 666.27 1499.15 1065.67 1715.49 1132.43C1908.56 1192.02 2074.29 1076.86 2196.48 962.639C2363.86 806.173 2354.1 453.254 2156.56 474.864Z" fill="url(#paint1_radial_126_8170)" fill-opacity="0.81"/>
</g>
<defs>
<filter id="filter0_f_126_8170" x="0" y="583" width="1302" height="1221" filterUnits="userSpaceOnUse" color-interpolation-filters="sRGB">
<feFlood flood-opacity="0" result="BackgroundImageFix"/>
<feBlend mode="normal" in="SourceGraphic" in2="BackgroundImageFix" result="shape"/>
<feGaussianBlur stdDeviation="75" result="effect1_foregroundBlur_126_8170"/>
</filter>
<filter id="filter1_f_126_8170" x="831" y="295" width="1538.67" height="1293.95" filterUnits="userSpaceOnUse" color-interpolation-filters="sRGB">
<feFlood flood-opacity="0" result="BackgroundImageFix"/>
<feBlend mode="normal" in="SourceGraphic" in2="BackgroundImageFix" result="shape"/>
<feGaussianBlur stdDeviation="75" result="effect1_foregroundBlur_126_8170"/>
</filter>
<filter id="filter2_f_126_8170" x="1659" y="538" width="1190.09" height="1428.06" filterUnits="userSpaceOnUse" color-interpolation-filters="sRGB">
<feFlood flood-opacity="0" result="BackgroundImageFix"/>
<feBlend mode="normal" in="SourceGraphic" in2="BackgroundImageFix" result="shape"/>
<feGaussianBlur stdDeviation="75" result="effect1_foregroundBlur_126_8170"/>
</filter>
<filter id="filter3_f_126_8170" x="112" y="295" width="1393.98" height="1145.3" filterUnits="userSpaceOnUse" color-interpolation-filters="sRGB">
<feFlood flood-opacity="0" result="BackgroundImageFix"/>
<feBlend mode="normal" in="SourceGraphic" in2="BackgroundImageFix" result="shape"/>
<feGaussianBlur stdDeviation="75" result="effect1_foregroundBlur_126_8170"/>
</filter>
<filter id="filter4_f_126_8170" x="77" y="0" width="1393.98" height="1145.3" filterUnits="userSpaceOnUse" color-interpolation-filters="sRGB">
<feFlood flood-opacity="0" result="BackgroundImageFix"/>
<feBlend mode="normal" in="SourceGraphic" in2="BackgroundImageFix" result="shape"/>
<feGaussianBlur stdDeviation="75" result="effect1_foregroundBlur_126_8170"/>
</filter>
<filter id="filter5_f_126_8170" x="1628" y="466" width="1092" height="1027.95" filterUnits="userSpaceOnUse" color-interpolation-filters="sRGB">
<feFlood flood-opacity="0" result="BackgroundImageFix"/>
<feBlend mode="normal" in="SourceGraphic" in2="BackgroundImageFix" result="shape"/>
<feGaussianBlur stdDeviation="75" result="effect1_foregroundBlur_126_8170"/>
</filter>
<filter id="filter6_f_126_8170" x="1768" y="76" width="1092" height="1027.95" filterUnits="userSpaceOnUse" color-interpolation-filters="sRGB">
<feFlood flood-opacity="0" result="BackgroundImageFix"/>
<feBlend mode="normal" in="SourceGraphic" in2="BackgroundImageFix" result="shape"/>
<feGaussianBlur stdDeviation="75" result="effect1_foregroundBlur_126_8170"/>
</filter>
<filter id="filter7_f_126_8170" x="736" y="538" width="1393.98" height="1217.19" filterUnits="userSpaceOnUse" color-interpolation-filters="sRGB">
<feFlood flood-opacity="0" result="BackgroundImageFix"/>
<feBlend mode="normal" in="SourceGraphic" in2="BackgroundImageFix" result="shape"/>
<feGaussianBlur stdDeviation="75" result="effect1_foregroundBlur_126_8170"/>
</filter>
<filter id="filter8_f_126_8170" x="1039" y="295" width="1539" height="1477" filterUnits="userSpaceOnUse" color-interpolation-filters="sRGB">
<feFlood flood-opacity="0" result="BackgroundImageFix"/>
<feBlend mode="normal" in="SourceGraphic" in2="BackgroundImageFix" result="shape"/>
<feGaussianBlur stdDeviation="75" result="effect1_foregroundBlur_126_8170"/>
</filter>
<filter id="filter9_f_126_8170" x="925" y="50" width="1539" height="1477" filterUnits="userSpaceOnUse" color-interpolation-filters="sRGB">
<feFlood flood-opacity="0" result="BackgroundImageFix"/>
<feBlend mode="normal" in="SourceGraphic" in2="BackgroundImageFix" result="shape"/>
<feGaussianBlur stdDeviation="75" result="effect1_foregroundBlur_126_8170"/>
</filter>
<radialGradient id="paint0_radial_126_8170" cx="0" cy="0" r="1" gradientUnits="userSpaceOnUse" gradientTransform="translate(1977.97 709.693) rotate(177.633) scale(555.51 692.177)">
<stop stop-color="#57CAFB"/>
<stop offset="1" stop-color="#FEC9E9"/>
</radialGradient>
<radialGradient id="paint1_radial_126_8170" cx="0" cy="0" r="1" gradientUnits="userSpaceOnUse" gradientTransform="translate(1863.97 464.693) rotate(177.633) scale(555.51 692.177)">
<stop stop-color="#57CAFB" stop-opacity="0.27"/>
<stop offset="1" stop-color="#FEC9E9"/>
</radialGradient>
</defs>
</svg>
