<svg width="2944" height="1913" viewBox="0 0 2944 1913" fill="none" xmlns="http://www.w3.org/2000/svg">
<g filter="url(#filter0_f_129_8490)">
<path d="M1985.28 818.116C1787.79 836.365 1644.67 715.44 1409.05 674.728C1237.97 645.167 1029.22 529.118 960.655 620.353C898.799 702.655 1158.17 714.257 1227.8 794.653C1412.18 1007.52 818.251 1143.63 914.665 1373.42C944.918 1445.52 957.798 1492.05 1043.17 1549.21C1305.67 1724.96 1135.82 1092.23 1544.32 1035.99C1952.81 979.753 1328.04 1317.04 1544.32 1373.42C1737.34 1423.73 1903.02 1326.49 2025.18 1230.03C2192.52 1097.9 2182.76 799.867 1985.28 818.116Z" fill="#FEA0BD" fill-opacity="0.79"/>
</g>
<g filter="url(#filter1_f_129_8490)">
<path d="M1645.86 892.879C1547.82 706.108 1361.75 652.032 1136.37 642.529C912.538 633.092 610.018 640.013 607.013 845.938C604.584 1012.38 946.675 1136.15 946.675 1136.15C946.675 1136.15 1213.02 1538.98 1448.47 1479.26C1699.87 1415.5 1759.18 1108.77 1645.86 892.879Z" fill="#F5F5F5"/>
</g>
<g filter="url(#filter2_f_129_8490)">
<path d="M1188.86 543.879C1090.82 357.108 904.747 303.032 679.367 293.529C455.538 284.092 153.018 291.013 150.013 496.938C147.584 663.383 489.675 787.15 489.675 787.15C489.675 787.15 756.024 1189.98 991.466 1130.26C1242.87 1066.5 1302.18 759.773 1188.86 543.879Z" fill="#F5F5F5"/>
</g>
<g filter="url(#filter3_f_129_8490)">
<ellipse cx="2024.5" cy="1110.5" rx="501.5" ry="524.5" fill="#FF3573"/>
</g>
<g filter="url(#filter4_f_129_8490)">
<path d="M2193.56 860.864C1996.03 882.475 1852.86 739.279 1617.19 691.069C1446.06 656.063 1237.26 518.642 1168.67 626.679C1106.8 724.139 1366.23 737.878 1435.89 833.08C1620.31 1085.15 1026.23 1246.33 1122.67 1518.43C1152.93 1603.82 1165.81 1658.92 1251.2 1726.6C1513.78 1934.72 1343.88 1185.46 1752.49 1118.86C2161.09 1052.27 1536.15 1451.67 1752.49 1518.43C1945.56 1578.02 2111.29 1462.86 2233.48 1348.64C2400.86 1192.17 2391.1 839.254 2193.56 860.864Z" fill="#FEA0BD" fill-opacity="0.79"/>
</g>
<g filter="url(#filter5_f_129_8490)">
<path d="M2079.56 615.864C1882.03 637.475 1738.86 494.279 1503.19 446.069C1332.06 411.063 1123.26 273.642 1054.67 381.679C992.797 479.139 1252.23 492.878 1321.89 588.08C1506.31 840.148 912.228 1001.33 1008.67 1273.43C1038.93 1358.82 1051.81 1413.92 1137.2 1481.6C1399.78 1689.72 1229.88 940.459 1638.49 873.865C2047.09 807.27 1422.15 1206.67 1638.49 1273.43C1831.56 1333.02 1997.29 1217.86 2119.48 1103.64C2286.86 947.173 2277.1 594.254 2079.56 615.864Z" fill="#FEA0BD" fill-opacity="0.79"/>
</g>
<g filter="url(#filter6_f_129_8490)">
<ellipse cx="809" cy="955.5" rx="501" ry="460.5" fill="#FEA0BD" fill-opacity="0.79"/>
</g>
<g filter="url(#filter7_f_129_8490)">
<path d="M1847.86 1153.77C1749.82 966.996 1184.33 1153.77 1292.15 909.456C1376.37 718.615 812.018 900.901 809.013 1106.83C806.584 1273.27 1148.67 1397.04 1148.67 1397.04C1148.67 1397.04 1415.02 1799.86 1650.47 1740.15C1901.87 1676.39 1961.18 1369.66 1847.86 1153.77Z" fill="#F5F5F5"/>
</g>
<g filter="url(#filter8_f_129_8490)">
<path d="M2710.34 286.388C2710.34 286.388 2274.31 56.5979 2069.35 193.557C1878.06 321.376 1879.87 525.376 1936.13 736.49C2000.44 977.819 2468.47 1479.64 2420.42 1191.11C2372.37 902.583 2524.16 865.951 2710.34 736.49C2896.53 607.029 2710.34 286.388 2710.34 286.388Z" fill="#F5F5F5"/>
</g>
<defs>
<filter id="filter0_f_129_8490" x="754" y="436" width="1538.67" height="1293.95" filterUnits="userSpaceOnUse" color-interpolation-filters="sRGB">
<feFlood flood-opacity="0" result="BackgroundImageFix"/>
<feBlend mode="normal" in="SourceGraphic" in2="BackgroundImageFix" result="shape"/>
<feGaussianBlur stdDeviation="75" result="effect1_foregroundBlur_129_8490"/>
</filter>
<filter id="filter1_f_129_8490" x="457" y="490" width="1393.98" height="1145.3" filterUnits="userSpaceOnUse" color-interpolation-filters="sRGB">
<feFlood flood-opacity="0" result="BackgroundImageFix"/>
<feBlend mode="normal" in="SourceGraphic" in2="BackgroundImageFix" result="shape"/>
<feGaussianBlur stdDeviation="75" result="effect1_foregroundBlur_129_8490"/>
</filter>
<filter id="filter2_f_129_8490" x="0" y="141" width="1393.98" height="1145.3" filterUnits="userSpaceOnUse" color-interpolation-filters="sRGB">
<feFlood flood-opacity="0" result="BackgroundImageFix"/>
<feBlend mode="normal" in="SourceGraphic" in2="BackgroundImageFix" result="shape"/>
<feGaussianBlur stdDeviation="75" result="effect1_foregroundBlur_129_8490"/>
</filter>
<filter id="filter3_f_129_8490" x="1373" y="436" width="1303" height="1349" filterUnits="userSpaceOnUse" color-interpolation-filters="sRGB">
<feFlood flood-opacity="0" result="BackgroundImageFix"/>
<feBlend mode="normal" in="SourceGraphic" in2="BackgroundImageFix" result="shape"/>
<feGaussianBlur stdDeviation="75" result="effect1_foregroundBlur_129_8490"/>
</filter>
<filter id="filter4_f_129_8490" x="962" y="436" width="1539" height="1477" filterUnits="userSpaceOnUse" color-interpolation-filters="sRGB">
<feFlood flood-opacity="0" result="BackgroundImageFix"/>
<feBlend mode="normal" in="SourceGraphic" in2="BackgroundImageFix" result="shape"/>
<feGaussianBlur stdDeviation="75" result="effect1_foregroundBlur_129_8490"/>
</filter>
<filter id="filter5_f_129_8490" x="848" y="191" width="1539" height="1477" filterUnits="userSpaceOnUse" color-interpolation-filters="sRGB">
<feFlood flood-opacity="0" result="BackgroundImageFix"/>
<feBlend mode="normal" in="SourceGraphic" in2="BackgroundImageFix" result="shape"/>
<feGaussianBlur stdDeviation="75" result="effect1_foregroundBlur_129_8490"/>
</filter>
<filter id="filter6_f_129_8490" x="158" y="345" width="1302" height="1221" filterUnits="userSpaceOnUse" color-interpolation-filters="sRGB">
<feFlood flood-opacity="0" result="BackgroundImageFix"/>
<feBlend mode="normal" in="SourceGraphic" in2="BackgroundImageFix" result="shape"/>
<feGaussianBlur stdDeviation="75" result="effect1_foregroundBlur_129_8490"/>
</filter>
<filter id="filter7_f_129_8490" x="659" y="679" width="1393.98" height="1217.19" filterUnits="userSpaceOnUse" color-interpolation-filters="sRGB">
<feFlood flood-opacity="0" result="BackgroundImageFix"/>
<feBlend mode="normal" in="SourceGraphic" in2="BackgroundImageFix" result="shape"/>
<feGaussianBlur stdDeviation="75" result="effect1_foregroundBlur_129_8490"/>
</filter>
<filter id="filter8_f_129_8490" x="1753" y="0" width="1190.09" height="1428.06" filterUnits="userSpaceOnUse" color-interpolation-filters="sRGB">
<feFlood flood-opacity="0" result="BackgroundImageFix"/>
<feBlend mode="normal" in="SourceGraphic" in2="BackgroundImageFix" result="shape"/>
<feGaussianBlur stdDeviation="75" result="effect1_foregroundBlur_129_8490"/>
</filter>
</defs>
</svg>
