<svg width="3055" height="1943" viewBox="0 0 3055 1943" fill="none" xmlns="http://www.w3.org/2000/svg">
<g filter="url(#filter0_f_126_8170)">
<ellipse cx="651" cy="1169.5" rx="501" ry="460.5" fill="#FEA0BD"/>
</g>
<g filter="url(#filter1_f_126_8170)">
<path d="M2062.28 653.116C1864.79 671.365 1721.67 550.44 1486.05 509.728C1314.97 480.167 1106.22 364.118 1037.65 455.353C975.799 537.655 1235.17 549.257 1304.8 629.653C1489.18 842.518 895.251 978.631 991.665 1208.42C1021.92 1280.52 1034.8 1327.05 1120.17 1384.21C1382.67 1559.96 1212.82 927.229 1621.32 870.991C2029.81 814.753 1405.04 1152.04 1621.32 1208.42C1814.34 1258.73 1980.02 1161.49 2102.18 1065.03C2269.52 932.898 2259.76 634.867 2062.28 653.116Z" fill="#FEA0BD"/>
</g>
<g filter="url(#filter2_f_126_8170)">
<path d="M2616.34 800.388C2616.34 800.388 2180.31 570.598 1975.35 707.557C1784.06 835.376 1785.87 1039.38 1842.13 1250.49C1906.44 1491.82 2374.47 1993.64 2326.42 1705.11C2278.37 1416.58 2430.16 1379.95 2616.34 1250.49C2802.53 1121.03 2616.34 800.388 2616.34 800.388Z" fill="#F4F4F4" fill-opacity="0.63"/>
</g>
<g filter="url(#filter3_f_126_8170)">
<path d="M1300.86 673.879C1202.82 487.108 1020.38 160.503 795 151C571.171 141.563 199.5 244.5 262.013 626.938C288.866 791.22 601.675 917.15 601.675 917.15C601.675 917.15 868.024 1319.98 1103.47 1260.26C1354.87 1196.5 1414.18 889.773 1300.86 673.879Z" fill="#FF3573"/>
</g>
<g filter="url(#filter4_f_126_8170)">
<ellipse cx="2174" cy="955.975" rx="396.002" ry="363.975" fill="#FEA0BD"/>
</g>
<g filter="url(#filter5_f_126_8170)">
<ellipse cx="2272" cy="702" rx="633" ry="371" fill="#FE3474"/>
</g>
<g filter="url(#filter6_f_126_8170)">
<path d="M1924.86 988.766C1826.82 801.996 1261.33 988.766 1369.15 744.456C1453.37 553.615 889.018 735.901 886.013 941.825C883.584 1108.27 1225.67 1232.04 1225.67 1232.04C1225.67 1232.04 1492.02 1634.86 1727.47 1575.15C1978.87 1511.39 2038.18 1204.66 1924.86 988.766Z" fill="#F4F4F4"/>
</g>
<g filter="url(#filter7_f_126_8170)">
<ellipse cx="721.002" cy="1168.98" rx="396.002" ry="363.975" fill="#C7C7C7"/>
</g>
<g filter="url(#filter8_f_126_8170)">
<path d="M2198.56 642.864C2001.03 664.475 1857.86 521.279 1622.19 473.069C1451.06 438.063 1242.26 300.642 1173.67 408.679C1111.8 506.139 1371.23 519.878 1440.89 615.08C1625.31 867.148 765.56 474.395 862 746.5C892.262 831.883 213.5 1530.5 1440.89 1530.5C1775.94 1530.5 1348.88 967.459 1757.49 900.865C2166.09 834.27 1541.15 1233.67 1757.49 1300.43C1950.56 1360.02 2116.29 1244.86 2238.48 1130.64C2405.86 974.173 2396.1 621.254 2198.56 642.864Z" fill="#FEA0BD"/>
</g>
<defs>
<filter id="filter0_f_126_8170" x="0" y="559" width="1302" height="1221" filterUnits="userSpaceOnUse" color-interpolation-filters="sRGB">
<feFlood flood-opacity="0" result="BackgroundImageFix"/>
<feBlend mode="normal" in="SourceGraphic" in2="BackgroundImageFix" result="shape"/>
<feGaussianBlur stdDeviation="75" result="effect1_foregroundBlur_126_8170"/>
</filter>
<filter id="filter1_f_126_8170" x="831" y="271" width="1538.67" height="1293.95" filterUnits="userSpaceOnUse" color-interpolation-filters="sRGB">
<feFlood flood-opacity="0" result="BackgroundImageFix"/>
<feBlend mode="normal" in="SourceGraphic" in2="BackgroundImageFix" result="shape"/>
<feGaussianBlur stdDeviation="75" result="effect1_foregroundBlur_126_8170"/>
</filter>
<filter id="filter2_f_126_8170" x="1659" y="514" width="1190.09" height="1428.06" filterUnits="userSpaceOnUse" color-interpolation-filters="sRGB">
<feFlood flood-opacity="0" result="BackgroundImageFix"/>
<feBlend mode="normal" in="SourceGraphic" in2="BackgroundImageFix" result="shape"/>
<feGaussianBlur stdDeviation="75" result="effect1_foregroundBlur_126_8170"/>
</filter>
<filter id="filter3_f_126_8170" x="105.028" y="0.41748" width="1400.95" height="1415.88" filterUnits="userSpaceOnUse" color-interpolation-filters="sRGB">
<feFlood flood-opacity="0" result="BackgroundImageFix"/>
<feBlend mode="normal" in="SourceGraphic" in2="BackgroundImageFix" result="shape"/>
<feGaussianBlur stdDeviation="75" result="effect1_foregroundBlur_126_8170"/>
</filter>
<filter id="filter4_f_126_8170" x="1628" y="442" width="1092" height="1027.95" filterUnits="userSpaceOnUse" color-interpolation-filters="sRGB">
<feFlood flood-opacity="0" result="BackgroundImageFix"/>
<feBlend mode="normal" in="SourceGraphic" in2="BackgroundImageFix" result="shape"/>
<feGaussianBlur stdDeviation="75" result="effect1_foregroundBlur_126_8170"/>
</filter>
<filter id="filter5_f_126_8170" x="1489" y="181" width="1566" height="1042" filterUnits="userSpaceOnUse" color-interpolation-filters="sRGB">
<feFlood flood-opacity="0" result="BackgroundImageFix"/>
<feBlend mode="normal" in="SourceGraphic" in2="BackgroundImageFix" result="shape"/>
<feGaussianBlur stdDeviation="75" result="effect1_foregroundBlur_126_8170"/>
</filter>
<filter id="filter6_f_126_8170" x="736" y="514" width="1393.98" height="1217.19" filterUnits="userSpaceOnUse" color-interpolation-filters="sRGB">
<feFlood flood-opacity="0" result="BackgroundImageFix"/>
<feBlend mode="normal" in="SourceGraphic" in2="BackgroundImageFix" result="shape"/>
<feGaussianBlur stdDeviation="75" result="effect1_foregroundBlur_126_8170"/>
</filter>
<filter id="filter7_f_126_8170" x="175" y="655" width="1092" height="1027.95" filterUnits="userSpaceOnUse" color-interpolation-filters="sRGB">
<feFlood flood-opacity="0" result="BackgroundImageFix"/>
<feBlend mode="normal" in="SourceGraphic" in2="BackgroundImageFix" result="shape"/>
<feGaussianBlur stdDeviation="75" result="effect1_foregroundBlur_126_8170"/>
</filter>
<filter id="filter8_f_126_8170" x="551.762" y="218" width="1954.24" height="1462.5" filterUnits="userSpaceOnUse" color-interpolation-filters="sRGB">
<feFlood flood-opacity="0" result="BackgroundImageFix"/>
<feBlend mode="normal" in="SourceGraphic" in2="BackgroundImageFix" result="shape"/>
<feGaussianBlur stdDeviation="75" result="effect1_foregroundBlur_126_8170"/>
</filter>
</defs>
</svg>
