<svg width="2850" height="1728" viewBox="0 0 2850 1728" fill="none" xmlns="http://www.w3.org/2000/svg">
<g filter="url(#filter0_f_126_8170)">
<ellipse cx="651" cy="954.5" rx="501" ry="460.5" fill="#FEA0BD"/>
</g>
<g filter="url(#filter1_f_126_8170)">
<path d="M2062.28 438.116C1864.79 456.365 1721.67 335.44 1486.05 294.728C1314.97 265.167 1106.22 149.118 1037.65 240.353C975.799 322.655 1235.17 334.257 1304.8 414.653C1489.18 627.518 895.251 763.631 991.665 993.417C1021.92 1065.52 1034.8 1112.05 1120.17 1169.21C1382.67 1344.96 1212.82 712.229 1621.32 655.991C2029.81 599.753 1405.04 937.037 1621.32 993.417C1814.34 1043.73 1980.02 946.488 2102.18 850.03C2269.52 717.898 2259.76 419.867 2062.28 438.116Z" fill="#FEA0BD"/>
</g>
<g filter="url(#filter2_f_126_8170)">
<path d="M2616.34 585.388C2616.34 585.388 2180.31 355.598 1975.35 492.557C1784.06 620.376 1785.87 824.376 1842.13 1035.49C1906.44 1276.82 2374.47 1778.64 2326.42 1490.11C2278.37 1201.58 2430.16 1164.95 2616.34 1035.49C2802.53 906.029 2616.34 585.388 2616.34 585.388Z" fill="#2C3267"/>
</g>
<g filter="url(#filter3_f_126_8170)">
<path d="M1300.86 458.879C1202.82 272.108 1016.75 218.032 791.367 208.529C567.538 199.092 265.018 206.013 262.013 411.938C259.584 578.383 601.675 702.15 601.675 702.15C601.675 702.15 868.024 1104.98 1103.47 1045.26C1354.87 981.5 1414.18 674.773 1300.86 458.879Z" fill="#2C3267"/>
</g>
<g filter="url(#filter4_f_126_8170)">
<ellipse cx="2174" cy="740.975" rx="396.002" ry="363.975" fill="#FEA0BD"/>
</g>
<g filter="url(#filter5_f_126_8170)">
<path d="M1924.86 773.766C1826.82 586.996 1261.33 773.766 1369.15 529.456C1453.37 338.615 889.018 520.901 886.013 726.825C883.584 893.27 1225.67 1017.04 1225.67 1017.04C1225.67 1017.04 1492.02 1419.86 1727.47 1360.15C1978.87 1296.39 2038.18 989.661 1924.86 773.766Z" fill="#2C3267"/>
</g>
<g filter="url(#filter6_f_126_8170)">
<ellipse cx="721.002" cy="953.975" rx="396.002" ry="363.975" fill="#2C3267"/>
</g>
<g filter="url(#filter7_f_126_8170)">
<path d="M2198.56 427.864C2001.03 449.475 1857.86 306.279 1622.19 258.069C1451.06 223.063 1242.26 85.6416 1173.67 193.679C1111.8 291.139 1371.23 304.878 1440.89 400.08C1625.31 652.148 765.56 259.395 862 531.5C892.262 616.883 213.5 1315.5 1440.89 1315.5C1775.94 1315.5 1348.88 752.459 1757.49 685.865C2166.09 619.27 1541.15 1018.67 1757.49 1085.43C1950.56 1145.02 2116.29 1029.86 2238.48 915.639C2405.86 759.173 2396.1 406.254 2198.56 427.864Z" fill="#FEA0BD"/>
</g>
<defs>
<filter id="filter0_f_126_8170" x="0" y="344" width="1302" height="1221" filterUnits="userSpaceOnUse" color-interpolation-filters="sRGB">
<feFlood flood-opacity="0" result="BackgroundImageFix"/>
<feBlend mode="normal" in="SourceGraphic" in2="BackgroundImageFix" result="shape"/>
<feGaussianBlur stdDeviation="75" result="effect1_foregroundBlur_126_8170"/>
</filter>
<filter id="filter1_f_126_8170" x="831" y="56" width="1538.67" height="1293.95" filterUnits="userSpaceOnUse" color-interpolation-filters="sRGB">
<feFlood flood-opacity="0" result="BackgroundImageFix"/>
<feBlend mode="normal" in="SourceGraphic" in2="BackgroundImageFix" result="shape"/>
<feGaussianBlur stdDeviation="75" result="effect1_foregroundBlur_126_8170"/>
</filter>
<filter id="filter2_f_126_8170" x="1659" y="299" width="1190.09" height="1428.06" filterUnits="userSpaceOnUse" color-interpolation-filters="sRGB">
<feFlood flood-opacity="0" result="BackgroundImageFix"/>
<feBlend mode="normal" in="SourceGraphic" in2="BackgroundImageFix" result="shape"/>
<feGaussianBlur stdDeviation="75" result="effect1_foregroundBlur_126_8170"/>
</filter>
<filter id="filter3_f_126_8170" x="112" y="56" width="1393.98" height="1145.3" filterUnits="userSpaceOnUse" color-interpolation-filters="sRGB">
<feFlood flood-opacity="0" result="BackgroundImageFix"/>
<feBlend mode="normal" in="SourceGraphic" in2="BackgroundImageFix" result="shape"/>
<feGaussianBlur stdDeviation="75" result="effect1_foregroundBlur_126_8170"/>
</filter>
<filter id="filter4_f_126_8170" x="1628" y="227" width="1092" height="1027.95" filterUnits="userSpaceOnUse" color-interpolation-filters="sRGB">
<feFlood flood-opacity="0" result="BackgroundImageFix"/>
<feBlend mode="normal" in="SourceGraphic" in2="BackgroundImageFix" result="shape"/>
<feGaussianBlur stdDeviation="75" result="effect1_foregroundBlur_126_8170"/>
</filter>
<filter id="filter5_f_126_8170" x="736" y="299" width="1393.98" height="1217.19" filterUnits="userSpaceOnUse" color-interpolation-filters="sRGB">
<feFlood flood-opacity="0" result="BackgroundImageFix"/>
<feBlend mode="normal" in="SourceGraphic" in2="BackgroundImageFix" result="shape"/>
<feGaussianBlur stdDeviation="75" result="effect1_foregroundBlur_126_8170"/>
</filter>
<filter id="filter6_f_126_8170" x="175" y="440" width="1092" height="1027.95" filterUnits="userSpaceOnUse" color-interpolation-filters="sRGB">
<feFlood flood-opacity="0" result="BackgroundImageFix"/>
<feBlend mode="normal" in="SourceGraphic" in2="BackgroundImageFix" result="shape"/>
<feGaussianBlur stdDeviation="75" result="effect1_foregroundBlur_126_8170"/>
</filter>
<filter id="filter7_f_126_8170" x="551.762" y="3" width="1954.24" height="1462.5" filterUnits="userSpaceOnUse" color-interpolation-filters="sRGB">
<feFlood flood-opacity="0" result="BackgroundImageFix"/>
<feBlend mode="normal" in="SourceGraphic" in2="BackgroundImageFix" result="shape"/>
<feGaussianBlur stdDeviation="75" result="effect1_foregroundBlur_126_8170"/>
</filter>
</defs>
</svg>
